<svg xmlns="http://www.w3.org/2000/svg" xmlns:xlink="http://www.w3.org/1999/xlink" xmlns:xodm="http://www.corel.com/coreldraw/odm/2003" xml:space="preserve" version="1.1" style="shape-rendering:geometricPrecision; text-rendering:geometricPrecision; image-rendering:optimizeQuality; fill-rule:evenodd; clip-rule:evenodd" viewBox="2495.86 7127.57 963.98 963.98">
 <defs>
  <style type="text/css">
   <![CDATA[
    .fil1 {fill:#960000}
    <!-- .fil2 {fill:#e5c160} -->
    .fil2 {fill:#fff}
    .fil0 {fill:#AB8C39;fill-rule:nonzero}
   ]]>
  </style>
 </defs>
 <g id="Layer_x0020_1">
  <metadata id="CorelCorpID_0Corel-Layer"/>
  <path class="fil1" d="M2495.86 7178.49l695.27 0 0 565.43c0,191.2 -156.43,347.63 -347.63,347.63l-0 0c-191.2,0 -347.63,-156.43 -347.63,-347.63l0 -565.43z"/>
  <path class="fil2" d="M3145.68 7265.33c-10.81,33.05 -30.13,53.74 -64.56,50.63l-271.48 -22.6c0.05,1.25 0.07,2.51 0.07,3.78 0,18.69 -5.57,36.11 -15.14,50.69 -6.43,-4.58 -13.47,-8.34 -20.98,-11.13 7.86,-11.23 12.48,-24.87 12.48,-39.57 0,-11.4 -2.79,-22.17 -7.7,-31.66l22.78 0 0 -0.01 344.53 -0.14z"/>
  <path class="fil2" d="M2717.44 7261.24c2.86,-5.45 2.56,-23.5 -18.75,-24.24l-74.52 -0.1c-6.21,-0.03 -12.67,-0.51 -16.32,-6.55 -2.69,25.35 7.31,30.36 17.08,30.15l-0.04 161.33c3.47,48.06 26.08,82.03 66.1,103.16l-0.03 107.23 25.55 0.02 0.06 -124.56c-39.34,-11.06 -63.93,-42 -66.07,-90.89l0.08 -155.63 66.85 0.09z"/>
  <path class="fil2" d="M2685.19 7265.66c-0.58,22.05 -19.31,17.34 -28.22,0l28.22 0z"/>
  <path class="fil2" d="M2746.41 7297.75c-4.5,-8.72 -23.06,-8.89 -29.35,-6.02l6.36 41.34c-8.67,1.85 -16.89,4.94 -24.45,9.1l-10.57 -76.73 40.31 -0.07c16.15,-0.03 18.95,18.93 17.7,32.38z"/>
  <path class="fil2" d="M3021.12 7641.93c-24.23,18.38 -57.52,16.14 -79.47,-10.15l-128.36 -154.87c6.5,-7.72 9.27,-11.66 12.92,-21.25l194.91 186.26z"/>
  <path class="fil2" d="M2933.38 7642.69c-26.17,15.49 -53.78,13.34 -73.15,-19.54l-69.78 -125.72c7.77,-4.54 11.43,-6.67 17.52,-13.23l125.41 158.49z"/>
  <path class="fil2" d="M2858.67 7646.37c-27.99,11.92 -58.64,5.86 -67.97,-29.07l-28.96 -107.27c6.9,-1.66 12.39,-3.64 20.13,-7.8l76.8 144.15z"/>
  <path class="fil2" d="M2932.33 7477c-28.1,20.49 -48.43,20.81 -74.54,-1.84l-29.02 -27.7c2.68,-8.53 3.87,-16.61 3.87,-26.01 0,-5.15 0.39,-5.28 -0.44,-10.19l100.14 65.74z"/>
  <path class="fil2" d="M3000.14 7442.52c-23.89,25.27 -49.63,32.81 -79.44,15.3l-90.13 -57.99c-4.49,-16.39 -15.35,-33.8 -27.43,-45.1 0.84,-1.25 -0.85,1.25 0,0l197 87.78z"/>
  <path class="fil2" d="M3060.62 7393.63c-19.79,28.6 -45.02,41.51 -77.14,28.72l-175.93 -75.37c4.41,-7.37 5.34,-9.46 7.72,-17.89l245.35 64.54z"/>
  <path class="fil2" d="M3110.8 7333.51c-15.41,31.18 -37.87,48.17 -71.5,40.19l-221.76 -53.06c1.93,-7.66 2.75,-11.56 2.75,-19.81 0,-0.3 -0.01,-0.6 -0.01,-0.91l290.52 33.59z"/>
  <polygon class="fil2" points="2748.95,7568.3 2744.39,7568.3 2744.39,7500.38 2748.95,7500.38 "/>
  <polygon class="fil2" points="2748.4,7342.17 2743.84,7342.17 2743.84,7300.17 2748.4,7300.17 "/>
  <path class="fil2" d="M2745.95 7572.44c5.82,0 10.57,5.06 10.57,11.27 0,6.21 -4.75,11.28 -10.57,11.28 -5.82,0 -10.57,-5.07 -10.57,-11.28 0,-6.21 4.75,-11.27 10.57,-11.27zm-25.13 25.68l52.55 0.07 -26.17 54.98 -26.38 -55.05z"/>
  <path class="fil2" d="M2796.43 7452.53c-8.54,14.79 -27.56,19.79 -42.48,11.16 -14.92,-8.63 -20.09,-27.61 -11.56,-42.4 -12.08,12.19 -12.09,31.94 -0.02,44.13 6.03,6.09 13.95,9.14 21.86,9.14 -5.6,5.65 -13.33,9.15 -21.87,9.15 -17.08,0 -30.92,-13.97 -30.91,-31.21 0.01,-17.24 13.86,-31.2 30.94,-31.21 -16.6,-4.36 -33.71,5.5 -38.23,22.05 -2.26,8.27 -0.95,16.65 3.01,23.5 -7.69,-2.02 -14.58,-6.98 -18.85,-14.37 -8.54,-14.8 -3.36,-33.77 11.57,-42.37 14.93,-8.61 33.95,-3.6 42.5,11.19 -4.52,-16.56 -21.62,-26.44 -38.2,-22.09 -8.3,2.18 -14.88,7.51 -18.85,14.36 -2.09,-7.67 -1.25,-16.12 3.02,-23.51 8.54,-14.79 27.57,-19.79 42.48,-11.17 14.92,8.63 20.09,27.61 11.56,42.39 12.08,-12.19 12.09,-31.93 0.03,-44.12 -6.04,-6.09 -13.95,-9.15 -21.87,-9.15 5.6,-5.64 13.33,-9.14 21.87,-9.14 17.08,0 30.92,13.97 30.9,31.21 -0.01,17.23 -13.86,31.2 -30.94,31.2 16.6,4.37 33.71,-5.5 38.23,-22.04 2.26,-8.27 0.94,-16.65 -3.01,-23.5 7.69,2.03 14.58,6.98 18.85,14.37 8.54,14.79 3.35,33.76 -11.58,42.37 -14.93,8.6 -33.95,3.59 -42.49,-11.19 4.52,16.56 21.62,26.44 38.2,22.09 8.3,-2.18 14.89,-7.52 18.85,-14.37 2.09,7.67 1.25,16.12 -3.02,23.52zm-54.29 -111.65c-44.23,0 -80.09,35.86 -80.09,80.09 0,44.24 35.86,80.1 80.09,80.1 44.23,0 80.09,-35.86 80.09,-80.1 0,-44.23 -35.86,-80.09 -80.09,-80.09z"/>
  <path class="fil2" d="M2893.72 7742.77c16.59,4.15 24.54,17.09 24.54,28.94l0 119.82 -24.54 23.2 0 -171.96z"/>
  <path class="fil2" d="M2771.14 7932.83l0 45.53c-0.22,12.98 10.13,25.75 24.54,28.82l0 -74.35 -24.54 0z"/>
  <path class="fil2" d="M2795.68 7742.77c-16.59,4.15 -24.54,17.09 -24.54,28.94l0 97.46c-0.22,12.98 10.13,25.75 24.54,28.82l0 -155.22z"/>
  <polygon class="fil2" points="2918.27,8006.54 2893.72,8006.54 2893.72,7932.83 2918.27,7932.83 "/>
  <polygon class="fil2" points="2853.83,7929.31 2853.86,8006.54 2878.4,8006.54 2878.38,7907.98 "/>
  <path class="fil2" d="M2756.22 8006.54l0 -27.14 0 -59.7 0 -165.59c0,-6.27 -5.49,-11.35 -12.27,-11.35 -6.78,0 -12.27,5.07 -12.27,11.35l0 165.59 0 59.7 0 27.14 24.54 0z"/>
  <path class="fil2" d="M2958.96 8006.54l0 -27.14 0 -59.7 0 -165.59c0,-6.27 -5.5,-11.35 -12.28,-11.35 -6.77,0 -12.27,5.07 -12.27,11.35l0 165.59 0 59.7 0 27.14 24.55 0z"/>
  <path class="fil2" d="M2878.38 7742.77c-16.59,4.15 -24.54,17.09 -24.54,28.94l0 107.88 24.54 0 0 -136.82z"/>
  <path class="fil2" d="M2811.04 7742.77c16.6,4.15 24.54,17.09 24.54,28.94l0.01 206.65c0.22,12.98 -10.14,25.75 -24.55,28.82l0 -264.41z"/>
  <path class="fil2" d="M2723.56 7661.14l122.21 0 205.62 0 0 0.03c4.39,-0.11 8.91,0.08 13.52,0.53 24.45,2.47 45.54,13.16 60.7,29.34 15.2,16.24 24.41,37.93 25.08,62.33 0.12,4.22 -0.06,8.74 -0.54,13.54 -2.3,22.76 -13.61,43.53 -30.06,58.73 -16.44,15.17 -38.06,24.88 -61.01,25.5 -3.44,0.08 -7.03,-0.06 -10.74,-0.43 -19.12,-1.92 -35.6,-10.29 -47.45,-22.94 -11.91,-12.72 -19.13,-29.68 -19.65,-48.76 -0.09,-3.24 0.05,-6.76 0.43,-10.54 1.64,-16.22 9.66,-30.98 21.34,-41.76 11.64,-10.76 27.01,-17.63 43.32,-18.1 2.4,-0.06 4.96,0.05 7.66,0.33 13.78,1.39 25.68,7.43 34.23,16.56 8.6,9.19 13.83,21.44 14.2,35.19 0.06,2.26 -0.04,4.78 -0.32,7.53 -0.96,9.67 -5.72,18.43 -12.6,24.79 -6.87,6.34 -15.96,10.4 -25.63,10.67 -1.36,0.04 -2.9,-0.04 -4.61,-0.21 -8.44,-0.84 -15.74,-4.56 -21,-10.16 -4.15,-4.46 -7.03,-10.06 -8.19,-16.34 -0.65,-3.47 0.2,-6.72 2.46,-9.44 2.26,-2.72 5.3,-4.14 8.83,-4.14l1.59 0c5.53,0 10.18,3.81 11.26,9.23 0.31,1.54 1,2.87 1.96,3.91 1.35,1.42 3.24,2.37 5.48,2.6 0.28,0.02 0.79,0.04 1.54,0.01 3.59,-0.09 7.05,-1.67 9.73,-4.15 2.68,-2.47 4.5,-5.72 4.84,-9.16 0.14,-1.3 0.17,-2.8 0.13,-4.47 -0.22,-7.54 -3,-14.18 -7.59,-19.09 -4.64,-4.95 -11.14,-8.22 -18.7,-8.98 -1.29,-0.13 -2.82,-0.18 -4.61,-0.13 -10.22,0.28 -19.96,4.69 -27.42,11.57 -7.46,6.88 -12.56,16.14 -13.57,26.13 -0.24,2.33 -0.3,4.83 -0.24,7.47 0.35,12.87 5.13,24.23 13.02,32.65 7.94,8.48 19.04,14.09 31.94,15.38 2.29,0.24 4.85,0.31 7.69,0.24 16.85,-0.46 32.85,-7.69 45.09,-18.99 12.23,-11.28 20.64,-26.56 22.3,-43.09 0.33,-3.35 0.46,-6.85 0.35,-10.48 -0.5,-18.19 -7.29,-34.28 -18.48,-46.22 -11.24,-12.02 -26.93,-19.94 -45.17,-21.77 -3.28,-0.33 -6.87,-0.46 -10.74,-0.35 -1.43,0.04 -2.84,0.08 -4.19,-0.04l-201.81 0 -122.21 0 0 -24.53z"/>
  <path class="fil2" d="M2637.84 7685.67c-3.14,-0.03 -6.08,0.11 -8.81,0.38 -18.25,1.83 -33.93,9.75 -45.17,21.77 -11.19,11.94 -17.98,28.03 -18.48,46.22 -0.11,3.63 0.01,7.13 0.35,10.48 1.66,16.54 10.07,31.81 22.3,43.09 12.24,11.31 28.24,18.53 45.09,18.99 2.84,0.07 5.4,0 7.69,-0.24 12.89,-1.29 24,-6.9 31.94,-15.38 7.89,-8.43 12.68,-19.78 13.03,-32.65 0.06,-2.64 0,-5.14 -0.24,-7.47 -1,-9.99 -6.11,-19.25 -13.56,-26.13 -7.46,-6.89 -17.2,-11.29 -27.42,-11.57 -1.78,-0.05 -3.31,0 -4.61,0.13 -7.56,0.75 -14.06,4.02 -18.7,8.98 -4.59,4.91 -7.37,11.55 -7.59,19.09 -0.04,1.67 -0.01,3.17 0.13,4.47 0.35,3.44 2.16,6.69 4.85,9.16 2.67,2.48 6.14,4.06 9.73,4.15 0.75,0.02 1.26,0.01 1.54,-0.01 2.23,-0.23 4.13,-1.18 5.48,-2.6 0.97,-1.04 1.66,-2.37 1.96,-3.91 1.09,-5.42 5.73,-9.23 11.26,-9.23l1.58 0c3.53,0 6.57,1.43 8.83,4.14 2.26,2.71 3.11,5.96 2.47,9.44 -1.16,6.28 -4.04,11.88 -8.19,16.34 -5.26,5.6 -12.55,9.32 -20.99,10.16 -1.71,0.17 -3.25,0.25 -4.61,0.21 -9.67,-0.26 -18.76,-4.32 -25.63,-10.67 -6.89,-6.36 -11.64,-15.12 -12.6,-24.79 -0.28,-2.75 -0.38,-5.27 -0.32,-7.53 0.37,-13.75 5.6,-26 14.2,-35.19 8.55,-9.13 20.44,-15.17 34.23,-16.56 2.71,-0.28 5.26,-0.39 7.67,-0.33 16.31,0.47 31.68,7.34 43.32,18.1 11.68,10.78 19.7,25.55 21.34,41.76 0.37,3.78 0.52,7.29 0.43,10.54 -0.53,19.07 -7.74,36.04 -19.65,48.76 -11.85,12.65 -28.33,21.02 -47.46,22.94 -3.71,0.37 -7.3,0.51 -10.74,0.43 -22.95,-0.62 -44.58,-10.33 -61.02,-25.5 -16.46,-15.2 -27.76,-35.96 -30.06,-58.73 -0.48,-4.8 -0.66,-9.31 -0.54,-13.54 0.67,-24.41 9.88,-46.09 25.09,-62.33 15.16,-16.19 36.25,-26.87 60.7,-29.34 1.07,-0.11 2.13,-0.19 3.19,-0.27 2.34,7.16 5.36,16.27 8.02,24.24z"/>
  <path class="fil2" d="M2713.67 7685.67l0.04 -35.16c-3.47,-17.97 -31,-11.57 -22.32,7.39l22.28 27.77zm-25.67 -0.16l-0.2 -35.16c-3.47,-17.97 -31,-11.57 -22.32,7.39l22.52 27.78zm-26.33 0.04l-0.2 -35.16c-3.47,-17.97 -31,-11.57 -22.32,7.39l22.52 27.77z"/>
 </g>
</svg>
