<svg xmlns="http://www.w3.org/2000/svg" xmlns:xlink="http://www.w3.org/1999/xlink" xmlns:xodm="http://www.corel.com/coreldraw/odm/2003" xml:space="preserve" version="1.1" style="shape-rendering:geometricPrecision; text-rendering:geometricPrecision; image-rendering:optimizeQuality; fill-rule:evenodd; clip-rule:evenodd" viewBox="2495.86 7127.57 3597.48 963.98">
 <defs>
  <style type="text/css">
   <![CDATA[
    .fil1 {fill:#960000}
    .fil2 {fill:#FEFEFE}
    .fil0 {fill:#AB8C39;fill-rule:nonzero}
   ]]>
  </style>
 </defs>
 <g id="Layer_x0020_1">
  <metadata id="CorelCorpID_0Corel-Layer"/>
  <path class="fil0" d="M5502.48 7548.13c0,3.91 -0.4,8.49 -1.21,13.74 -0.81,5.39 -2.02,11.99 -3.91,20.21 -3.1,14.01 -8.3,28.53 -15.36,43.65 -7.09,15.19 -27.21,37.61 -37.18,45.29l93.85 -0.24c37.13,-0.09 73.19,8.39 96.63,27.62l-92.41 51.14c-14.93,-46.6 -81.62,-54.83 -123.54,-54.83 -9.16,4.98 -23.98,11.05 -44.32,17.92 -20.48,6.87 -40.15,10.37 -59.01,10.37 -34.76,0 -65.74,-4.72 -92.82,-14.28 -27.07,-9.43 -49.17,-22.37 -66.15,-38.94 -16.97,-16.43 -29.77,-35.02 -38.39,-55.91 -3.91,-10.51 -7,-21.15 -9.16,-31.8 -2.02,-10.64 -3.1,-21.42 -3.1,-32.2l0 -305.27c0,-19.26 -4.85,-32.06 -14.41,-38.39 -9.57,-6.33 -26.41,-9.43 -50.25,-9.43 -1.61,0 -2.43,-2.43 -2.43,-7.41 0,-4.31 0.81,-6.6 2.43,-7.14l209.35 0c1.61,0 2.43,2.15 2.43,6.33 0,5.26 -1.08,7.95 -3.1,8.22 -23.17,0 -39.88,3.1 -50.25,9.43 -9.7,6.6 -14.55,19.4 -14.55,38.39l0 295.71c0,99.15 44.19,148.73 132.7,148.73 34.22,0 64.67,-7.81 91.47,-23.31 26.94,-15.63 44.59,-36.11 52.94,-61.7 3.91,-11.85 7,-23.57 9.16,-35.16 2.02,-11.59 3.1,-23.04 3.1,-34.49 0,-22.09 -3.64,-40.28 -10.91,-54.7 -7.14,-14.41 -14.41,-24.79 -21.82,-31.26 -7.41,-6.46 -13.2,-10.78 -17.38,-12.8l0 -191.03c0,-19 -4.85,-31.66 -14.55,-38.13 -9.83,-6.46 -26.81,-9.7 -51.06,-9.7 -2.02,0 -3.1,-2.69 -3.1,-8.22 0,-3.77 0.81,-5.79 2.43,-6.33l209.49 0c2.02,0 3.1,2.43 3.1,7.14 0,4.72 -1.08,7.14 -3.1,7.41 -23.44,0 -40.28,3.1 -50.39,9.3 -10.1,6.2 -15.22,19 -15.22,38.53l0 303.52z"/>
  <path class="fil0" d="M4858.43 7231.48c23.44,7.28 34.76,29.1 34.76,66.28l15.36 2.42 42.84 -134.98c-97.19,-23.15 -196.21,15.18 -262.7,87.3 -67.59,74.18 -118.28,205.3 -160.85,299.07l366.17 134.18c16.97,6.46 29.1,13.74 37.99,22.63 8.89,8.89 13.74,18.59 15.36,27.48 2.43,8.08 3.24,21.83 3.24,40.42l14.55 0 0 -153.58 -373.44 -134.18c68.71,-175.41 145.5,-262.7 231.99,-262.7 11.31,0 22.63,1.61 34.76,5.66z"/>
  <path class="fil0" d="M3719.44 7658.83l-166.26 -299.17c-45.13,65.64 -81.91,105.57 -108.92,177.61 -9.05,24.28 -13.51,47.99 -13.51,71.56 0,75.16 60.08,81.95 118.83,74l169.85 -24zm-231.06 -414.85l16.52 -12.79 53.46 74.15 99.37 -143.28c30.36,-43.78 79,-43.76 117.75,-11.91l-45.7 66.39 -23.13 -18.11c-1.15,-1.29 -3.16,-2.87 -6.04,-4.89 -17.55,-11.7 -36.86,10.12 -45.69,22.99l-79.32 111.22 256.06 341.42c14.7,20.28 33.26,18.11 55.18,18.11l0 20.69 -139.81 0 -12.79 -23.42 -175.17 27.73c-33.09,6.27 -67.19,10.35 -100.87,10.35 -74.57,0 -111.94,-22.7 -111.94,-68.26 0,-30.61 17.53,-71.13 52.45,-121.42l138.09 -200.89 -48.43 -88.09z"/>
  <path class="fil0" d="M5981.25 7231.48c23.44,7.28 34.76,29.1 34.76,66.28l15.36 2.42 42.84 -134.98c-16.98,-4.04 -37.18,-5.66 -59.81,-5.66 -78.41,0 -145.5,30.72 -202.89,92.96 -33.14,36.37 -66.28,92.15 -101.04,167.32l-59.81 131.75 366.17 134.18c16.97,6.46 29.1,13.74 37.99,22.63 8.89,8.89 13.74,18.59 15.36,27.48 2.43,8.08 3.24,21.83 3.24,40.42l14.55 0 0 -153.58 -373.44 -134.18c68.71,-175.41 145.5,-262.7 231.99,-262.7 11.31,0 22.63,1.61 34.76,5.66z"/>
  <path class="fil0" d="M4220.61 7253.3c-81.12,-53.3 -193.37,-17.03 -266.24,24.71l52.59 -109.57c140.04,-4.98 314.4,26.76 371.01,174.52l-24.58 10.02c-76.44,-115.99 -251.22,-96.73 -314.57,22.66 -47.78,90.04 -28.88,247.27 66.87,300.7 51.8,29.09 134.82,28.24 177.68,-15.65 35.79,-36.66 50.69,-73.01 56.71,-122.2l83.35 -43.8c8.89,94.74 -53.72,168.99 -136.48,205.41 -72.37,32.13 -167.87,31.45 -237.82,-6.73 -217.84,-119.27 -139.98,-454.92 171.5,-440.07z"/>
  <path class="fil0" d="M3372.58 7876.45l0 26.59c0,4.07 1.15,6.81 3.42,8.24 2.29,1.45 5.19,2.16 8.76,2.16l2.27 0 2.79 0c2.66,0 5.6,-0.74 8.84,-2.19 3.22,-1.47 6.04,-3.26 8.39,-5.36 2.36,-2.12 3.55,-4.02 3.55,-5.73l0 -12.56c0,-1.19 -0.35,-3.29 -1.02,-6.29 -0.67,-3.01 -2.14,-6.53 -4.43,-10.57 -2.27,-4.04 -5.69,-7.57 -10.19,-10.59 -4.52,-3.03 -10.42,-4.54 -17.69,-4.54 -0.67,0 -1.28,0 -1.81,0 -0.56,0 -1.08,0.04 -1.6,0.13l-0.63 7.16c0,1.02 -0.11,3 -0.33,6.01 -0.21,3.01 -0.32,5.52 -0.32,7.55zm60.95 42.06l-10.51 0.26c-0.97,0 -2.31,-0.04 -4.02,-0.13 -1.7,-0.09 -2.92,-0.13 -3.63,-0.13l-2.23 0c-0.52,0 -1,0 -1.47,0 -0.54,0 -0.91,0 -1.08,0l0 -9.86c-1.77,1.64 -4.65,3.67 -8.65,6.07 -2.03,1.21 -4.15,2.14 -6.35,2.81 -2.21,0.65 -4.54,0.97 -6.98,0.97l-16.17 0c-4.76,0 -8.07,-1.58 -9.91,-4.76 -1.86,-3.16 -2.79,-7.42 -2.79,-12.74l0 -21.15c0,-7.22 0.54,-12.72 1.62,-16.48 1.06,-3.76 1.97,-6.14 2.68,-7.16 -2.75,0 -5.45,0.78 -8.13,2.31 -2.68,1.54 -5.17,3.46 -7.46,5.73 -2.27,2.29 -3.91,4.22 -4.93,5.84l0 -15.85c1.56,-0.89 3.42,-1.56 5.58,-2.05 2.14,-0.48 4.37,-0.82 6.64,-1.04l6.2 -0.26 2.92 0.13 1.08 0.13 3.42 -3.26c0.54,-0.91 1.88,-2.49 4,-4.76 1.97,-2.09 5.28,-4.3 9.88,-6.61 2.53,-1.28 5.06,-2.27 7.59,-2.96 3.01,-0.8 6.1,-1.21 9.26,-1.21l3.05 0 1.91 0c4.39,0 8.41,0.32 12.06,0.97 3.65,0.67 6.72,2.03 9.21,4.09l-11.05 10.38c-0.11,-0.93 -1.04,-2.27 -2.77,-4.02 -0.84,-0.87 -1.81,-1.69 -2.92,-2.44 -1.1,-0.78 -2.33,-1.51 -3.7,-2.23 -1.39,-0.69 -2.77,-1.21 -4.15,-1.56 -1.41,-0.35 -2.9,-0.52 -4.5,-0.52 -1.43,0 -2.46,0.09 -3.11,0.26 -5.94,1.02 -10.33,3.03 -13.17,6.01 -2.81,2.98 -4.6,5.38 -5.38,7.22l9.75 1.02c3.26,0 6.46,0.52 9.62,1.54 2.7,0.89 5.47,2.16 8.3,3.81 4.97,2.87 8.91,6.33 11.76,10.38 2.88,4.04 5,8.13 6.34,12.28 0.65,2.04 1.12,3.96 1.47,5.78 0.32,1.81 0.5,3.54 0.5,5.15l0 17.51c0,3.18 0.8,5.36 2.42,6.55 1.6,1.11 4.22,1.65 7.81,1.65 0.39,0 0.58,0.39 0.58,1.15 0,0.71 -0.19,1.1 -0.58,1.19zm73.11 -26.9c0,0.63 -0.06,1.36 -0.19,2.2 -0.13,0.87 -0.33,1.93 -0.63,3.24 -0.5,2.25 -1.32,4.58 -2.46,7 -1.13,2.44 -2.49,4.26 -4.09,5.49l5.81 0.02c10.98,0 18.68,1.81 23.13,5.47l-15.09 8.89c-1.06,-3.31 -3.52,-5.57 -7.44,-6.87 -3.91,-1.28 -8.04,-1.93 -12.39,-1.93 -1.47,0.8 -3.85,1.78 -7.11,2.88 -3.29,1.1 -6.44,1.67 -9.47,1.67 -5.58,0 -10.55,-0.76 -14.9,-2.3 -4.35,-1.51 -7.89,-3.59 -10.61,-6.25 -2.72,-2.64 -4.78,-5.62 -6.16,-8.97 -0.63,-1.69 -1.13,-3.39 -1.47,-5.1 -0.32,-1.71 -0.5,-3.44 -0.5,-5.17l0 -49c0,-3.09 -0.78,-5.15 -2.31,-6.16 -1.54,-1.02 -4.24,-1.51 -8.06,-1.51 -0.26,0 -0.39,-0.39 -0.39,-1.19 0,-0.69 0.13,-1.06 0.39,-1.15l33.6 0c0.26,0 0.39,0.35 0.39,1.02 0,0.84 -0.17,1.28 -0.5,1.32 -3.72,0 -6.4,0.5 -8.07,1.51 -1.56,1.06 -2.33,3.11 -2.33,6.16l0 47.46c0,15.92 7.09,23.87 21.3,23.87 5.49,0 10.38,-1.26 14.68,-3.74 4.32,-2.51 7.16,-5.79 8.5,-9.9 0.63,-1.9 1.13,-3.78 1.47,-5.64 0.32,-1.86 0.5,-3.7 0.5,-5.54 0,-3.55 -0.58,-6.46 -1.75,-8.78 -1.15,-2.31 -2.31,-3.98 -3.5,-5.02 -1.19,-1.04 -2.12,-1.73 -2.79,-2.06l0 -30.66c0,-3.05 -0.78,-5.08 -2.33,-6.12 -1.58,-1.04 -4.3,-1.56 -8.2,-1.56 -0.32,0 -0.5,-0.43 -0.5,-1.32 0,-0.61 0.13,-0.93 0.39,-1.02l33.62 0c0.32,0 0.5,0.39 0.5,1.15 0,0.76 -0.17,1.15 -0.5,1.19 -3.76,0 -6.46,0.5 -8.09,1.49 -1.62,0.99 -2.44,3.05 -2.44,6.18l0 48.72zm90.11 -31.74l0 5.71c0,2.22 0.26,3.91 0.8,4.99 0.52,1.1 1.43,1.91 2.7,2.42 0.58,0.17 1.34,0.33 2.25,0.5 0.91,0.17 1.84,0.26 2.81,0.26 0.26,0 0.39,0.43 0.39,1.32 0,0.86 -0.13,1.32 -0.39,1.41l-29.45 0c-0.26,0 -0.39,-0.39 -0.39,-1.15 0,-0.97 0.13,-1.49 0.39,-1.57 2.96,0 5.06,-0.56 6.29,-1.71 1.26,-1.15 1.88,-3.31 1.88,-6.46l0 -4.13c0,-6.79 -1.21,-12 -3.61,-15.59 -2.4,-3.59 -5.02,-5.9 -7.83,-6.92 -2.81,-1.02 -5.28,-1.51 -7.37,-1.51 -2.38,0 -4.97,0.5 -7.83,1.49 -2.85,1 -5.47,3.29 -7.83,6.85 -2.36,3.57 -3.55,8.8 -3.55,15.7l0 46.14c0,3 1.02,5.19 3.05,6.53 2.01,1.36 4.48,2.03 7.35,2.03 0.32,0 0.5,0.41 0.5,1.25 0,0.72 -0.13,1.08 -0.39,1.08l-33.6 0c-0.26,0 -0.39,-0.39 -0.39,-1.19 0,-0.69 0.13,-1.06 0.39,-1.15 3.63,0 6.27,-0.63 7.91,-1.9 1.64,-1.28 2.46,-3.48 2.46,-6.66l0 -47.72c0,-3.59 0.61,-6.98 1.84,-10.16 1.23,-3.2 3.13,-6.1 5.73,-8.69 2.59,-2.61 5.93,-4.67 10.01,-6.23 4.06,-1.53 8.8,-2.31 14.2,-2.31 5.45,0 10.2,0.78 14.27,2.31 4.09,1.54 7.35,3.57 9.81,6.08 2.46,2.53 4.35,5.43 5.65,8.76 1.28,3.31 1.92,6.72 1.92,10.23zm71.67 36.95c0,2.79 -0.73,5.56 -2.22,8.32 -1.47,2.77 -3.5,5.25 -6.1,7.48 -2.59,2.2 -5.69,4 -9.23,5.39 -3.55,1.36 -7.13,2.05 -10.77,2.05 -8.69,0 -15.55,-1.49 -20.59,-4.45 -5.02,-2.98 -8.43,-5.99 -10.22,-9.06 -1.8,-3.05 -2.88,-5.3 -3.27,-6.72l13.3 -5.32c1.19,5.28 3.29,10.07 6.29,14.4 2.98,4.32 7.33,6.48 13,6.48 4.78,0 8.87,-1.28 12.26,-3.8 3.39,-2.53 5.1,-5.97 5.1,-10.31 0,-5.08 -1.77,-9.17 -5.3,-12.26 -3.52,-3.11 -9.02,-6.68 -16.5,-10.75 -7.48,-4.04 -13.04,-7.83 -16.69,-11.33 -3.65,-3.5 -5.49,-8.15 -5.49,-13.93 0,-3.59 0.95,-7.03 2.85,-10.27 1.9,-3.24 4.65,-5.86 8.26,-7.83 3.61,-1.97 7.76,-2.94 12.46,-2.94 1.1,0 2.14,0 3.11,0.02 0.98,0.02 1.97,0.21 3.03,0.54 1.54,0.39 3.72,1.06 6.55,2.03 2.85,0.97 4.93,1.45 6.25,1.45 1.19,0 2.14,-0.43 2.87,-1.3 0.76,-0.86 1.19,-1.77 1.3,-2.74l0.91 0 1.58 0 2.96 27.5 -2.98 0 -2.1 -5.28c-0.58,-1.47 -1.19,-2.79 -1.8,-3.96 -0.63,-1.17 -1.45,-2.51 -2.51,-4.04 -1.81,-2.62 -4.24,-4.93 -7.24,-6.94 -3.03,-2.01 -6.61,-3.01 -10.74,-3.01 -3.33,0 -6.57,1.23 -9.69,3.68 -3.13,2.44 -4.69,5.58 -4.69,9.39 0,3.91 1.71,7.18 5.11,9.75 3.39,2.57 9.06,5.99 16.97,10.3 7.91,4.28 13.9,8.39 17.93,12.35 4.04,3.96 6.05,8.99 6.05,15.11zm78.91 -5.21c0,0.63 -0.06,1.36 -0.19,2.2 -0.13,0.87 -0.33,1.93 -0.63,3.24 -0.5,2.25 -1.32,4.58 -2.46,7 -1.13,2.44 -2.49,4.26 -4.09,5.49l5.81 0.02c10.98,0 18.68,1.81 23.13,5.47l-15.09 8.89c-1.06,-3.31 -3.52,-5.57 -7.44,-6.87 -3.91,-1.28 -8.04,-1.93 -12.39,-1.93 -1.47,0.8 -3.85,1.78 -7.11,2.88 -3.29,1.1 -6.44,1.67 -9.47,1.67 -5.58,0 -10.55,-0.76 -14.9,-2.3 -4.35,-1.51 -7.89,-3.59 -10.61,-6.25 -2.72,-2.64 -4.78,-5.62 -6.16,-8.97 -0.63,-1.69 -1.13,-3.39 -1.47,-5.1 -0.32,-1.71 -0.5,-3.44 -0.5,-5.17l0 -49c0,-3.09 -0.78,-5.15 -2.31,-6.16 -1.54,-1.02 -4.24,-1.51 -8.06,-1.51 -0.26,0 -0.39,-0.39 -0.39,-1.19 0,-0.69 0.13,-1.06 0.39,-1.15l33.6 0c0.26,0 0.39,0.35 0.39,1.02 0,0.84 -0.17,1.28 -0.5,1.32 -3.72,0 -6.4,0.5 -8.07,1.51 -1.56,1.06 -2.33,3.11 -2.33,6.16l0 47.46c0,15.92 7.09,23.87 21.3,23.87 5.49,0 10.38,-1.26 14.68,-3.74 4.32,-2.51 7.16,-5.79 8.5,-9.9 0.63,-1.9 1.13,-3.78 1.47,-5.64 0.32,-1.86 0.5,-3.7 0.5,-5.54 0,-3.55 -0.58,-6.46 -1.75,-8.78 -1.15,-2.31 -2.31,-3.98 -3.5,-5.02 -1.19,-1.04 -2.12,-1.73 -2.79,-2.06l0 -30.66c0,-3.05 -0.78,-5.08 -2.33,-6.12 -1.58,-1.04 -4.3,-1.56 -8.2,-1.56 -0.32,0 -0.5,-0.43 -0.5,-1.32 0,-0.61 0.13,-0.93 0.39,-1.02l33.62 0c0.32,0 0.5,0.39 0.5,1.15 0,0.76 -0.17,1.15 -0.5,1.19 -3.76,0 -6.46,0.5 -8.09,1.49 -1.62,0.99 -2.44,3.05 -2.44,6.18l0 48.72zm90.11 -31.74l0 5.71c0,2.22 0.26,3.91 0.8,4.99 0.52,1.1 1.43,1.91 2.7,2.42 0.58,0.17 1.34,0.33 2.25,0.5 0.91,0.17 1.84,0.26 2.81,0.26 0.26,0 0.39,0.43 0.39,1.32 0,0.86 -0.13,1.32 -0.39,1.41l-29.45 0c-0.26,0 -0.39,-0.39 -0.39,-1.15 0,-0.97 0.13,-1.49 0.39,-1.57 2.96,0 5.06,-0.56 6.29,-1.71 1.26,-1.15 1.88,-3.31 1.88,-6.46l0 -4.13c0,-6.79 -1.21,-12 -3.61,-15.59 -2.4,-3.59 -5.02,-5.9 -7.83,-6.92 -2.81,-1.02 -5.28,-1.51 -7.37,-1.51 -2.38,0 -4.97,0.5 -7.83,1.49 -2.85,1 -5.47,3.29 -7.83,6.85 -2.36,3.57 -3.55,8.8 -3.55,15.7l0 46.14c0,3 1.02,5.19 3.05,6.53 2.01,1.36 4.48,2.03 7.35,2.03 0.32,0 0.5,0.41 0.5,1.25 0,0.72 -0.13,1.08 -0.39,1.08l-33.6 0c-0.26,0 -0.39,-0.39 -0.39,-1.19 0,-0.69 0.13,-1.06 0.39,-1.15 3.63,0 6.27,-0.63 7.91,-1.9 1.64,-1.28 2.46,-3.48 2.46,-6.66l0 -47.72c0,-3.59 0.61,-6.98 1.84,-10.16 1.23,-3.2 3.13,-6.1 5.73,-8.69 2.59,-2.61 5.93,-4.67 10.01,-6.23 4.06,-1.53 8.8,-2.31 14.2,-2.31 5.45,0 10.2,0.78 14.27,2.31 4.09,1.54 7.35,3.57 9.81,6.08 2.46,2.53 4.35,5.43 5.65,8.76 1.28,3.31 1.92,6.72 1.92,10.23zm79.97 31.74c0,0.63 -0.06,1.36 -0.19,2.2 -0.13,0.87 -0.33,1.93 -0.63,3.24 -0.5,2.25 -1.32,4.58 -2.46,7 -1.13,2.44 -2.49,4.26 -4.09,5.49l5.81 0.02c10.98,0 18.68,1.81 23.13,5.47l-15.09 8.89c-1.06,-3.31 -3.52,-5.57 -7.44,-6.87 -3.91,-1.28 -8.04,-1.93 -12.39,-1.93 -1.47,0.8 -3.85,1.78 -7.11,2.88 -3.29,1.1 -6.44,1.67 -9.47,1.67 -5.58,0 -10.55,-0.76 -14.9,-2.3 -4.35,-1.51 -7.89,-3.59 -10.61,-6.25 -2.72,-2.64 -4.78,-5.62 -6.16,-8.97 -0.63,-1.69 -1.13,-3.39 -1.47,-5.1 -0.32,-1.71 -0.5,-3.44 -0.5,-5.17l0 -49c0,-3.09 -0.78,-5.15 -2.31,-6.16 -1.54,-1.02 -4.24,-1.51 -8.06,-1.51 -0.26,0 -0.39,-0.39 -0.39,-1.19 0,-0.69 0.13,-1.06 0.39,-1.15l33.6 0c0.26,0 0.39,0.35 0.39,1.02 0,0.84 -0.17,1.28 -0.5,1.32 -3.72,0 -6.4,0.5 -8.07,1.51 -1.56,1.06 -2.33,3.11 -2.33,6.16l0 47.46c0,15.92 7.09,23.87 21.3,23.87 5.49,0 10.38,-1.26 14.68,-3.74 4.32,-2.51 7.16,-5.79 8.5,-9.9 0.63,-1.9 1.13,-3.78 1.47,-5.64 0.32,-1.86 0.5,-3.7 0.5,-5.54 0,-3.55 -0.58,-6.46 -1.75,-8.78 -1.15,-2.31 -2.31,-3.98 -3.5,-5.02 -1.19,-1.04 -2.12,-1.73 -2.79,-2.06l0 -30.66c0,-3.05 -0.78,-5.08 -2.33,-6.12 -1.58,-1.04 -4.3,-1.56 -8.2,-1.56 -0.32,0 -0.5,-0.43 -0.5,-1.32 0,-0.61 0.13,-0.93 0.39,-1.02l33.62 0c0.32,0 0.5,0.39 0.5,1.15 0,0.76 -0.17,1.15 -0.5,1.19 -3.76,0 -6.46,0.5 -8.09,1.49 -1.62,0.99 -2.44,3.05 -2.44,6.18l0 48.72zm66.63 -60.41c2.75,0 5.34,0.13 7.81,0.39 2.44,0.24 4.93,0.67 7.48,1.26 4.89,1.02 9.34,2.79 13.3,5.34 3.98,2.53 7.2,6.03 9.65,10.46 2.44,4.43 3.68,9.84 3.68,16.17l0 42.51c0,2.55 1.08,4.56 3.22,6.03 1.08,0.69 2.29,1.21 3.63,1.6 1.32,0.37 2.76,0.56 4.3,0.56 0.26,0 0.39,0.37 0.39,1.08 0,0.84 -0.13,1.25 -0.39,1.25l-35.41 0c-0.26,0 -0.39,-0.39 -0.39,-1.15 0,-0.76 0.17,-1.15 0.5,-1.19 3.11,0 5.81,-0.69 8.06,-2.1 2.25,-1.41 3.37,-3.39 3.37,-5.99l0 -44.58c0,-7.35 -1.41,-13 -4.24,-16.95 -2.83,-3.94 -5.94,-6.55 -9.39,-7.83 -3.41,-1.26 -6.31,-1.91 -8.69,-1.91l0 58.99 -12.97 -0.13 0 -58.64c-7.2,0 -12.8,2.38 -16.76,7.16 -3.96,4.78 -5.94,10.33 -5.94,16.67 0,5.45 1.38,9.81 4.15,13.12l-8.02 15.2c-5.91,-5.99 -8.85,-13.26 -8.85,-21.8 0,-6.16 1.62,-11.96 4.85,-17.36 3.24,-5.41 8.02,-9.8 14.33,-13.15 6.31,-3.35 13.75,-5.04 22.33,-5.04zm101.24 32.3l-26.72 0 0 27.5c0,6.88 1.19,12.09 3.55,15.61 2.35,3.53 4.97,5.78 7.78,6.77 2.83,1 5.45,1.49 7.87,1.49 2.31,0 4.87,-0.47 7.63,-1.43 2.77,-0.95 5.32,-3.13 7.65,-6.57 2.35,-3.44 3.52,-8.43 3.52,-14.96l0 -0.39c0,-3.16 -0.43,-5.23 -1.32,-6.2 -0.48,-0.46 -1.19,-0.82 -2.12,-1.06 -0.95,-0.26 -2.19,-0.39 -3.72,-0.39 -0.32,0 -0.5,-0.5 -0.5,-1.52 0,-0.65 0.13,-0.99 0.39,-1.08l27.11 0c0.26,0 0.39,0.43 0.39,1.32 0,0.78 -0.13,1.19 -0.39,1.28 -1.99,0 -3.52,0.24 -4.59,0.69 -0.93,0.3 -1.62,0.97 -2.03,2.03 -0.35,1.1 -0.52,2.74 -0.52,4.95l0 1.71c0,1.56 -0.15,3.14 -0.43,4.72 -0.3,1.58 -0.78,3.18 -1.41,4.78 -1.19,2.96 -3.05,5.75 -5.6,8.35 -2.55,2.59 -5.88,4.67 -9.97,6.25 -4.11,1.56 -8.84,2.34 -14.25,2.34 -7.13,0 -13.1,-1.3 -17.88,-3.89 -4.8,-2.62 -8.3,-6.06 -10.55,-10.31 -2.23,-4.28 -3.35,-8.71 -3.35,-13.34l0 -48.35c0,-3.18 -0.69,-5.39 -2.07,-6.66 -1.36,-1.28 -3.81,-1.9 -7.27,-1.9 -0.35,0 -0.52,-0.39 -0.52,-1.19 0,-0.74 0.17,-1.1 0.5,-1.15l31.61 0c0.3,0 0.45,0.39 0.45,1.15 0,0.71 -0.19,1.1 -0.56,1.19 -2.83,0 -5.1,0.67 -6.83,2.03 -1.73,1.36 -2.59,3.55 -2.59,6.55l0 15.42 36.41 0c1.51,0 2.66,0.02 3.41,0.06 3.89,0.22 5.91,0.33 6.04,0.33 1.6,0 3.2,0.15 4.8,0.45 0.89,0.15 2.7,0.58 5.45,1.3 2.74,0.69 5.02,1.79 6.79,3.33l-14.51 8.93c-0.71,-1.36 -2.12,-2.85 -4.22,-4.5 -2.09,-1.62 -4.63,-2.96 -7.63,-4.02 -3.01,-1.06 -6.27,-1.6 -9.82,-1.6zm100.49 33.32c0,2.79 -0.73,5.56 -2.22,8.32 -1.47,2.77 -3.5,5.25 -6.1,7.48 -2.59,2.2 -5.69,4 -9.23,5.39 -3.55,1.36 -7.13,2.05 -10.77,2.05 -8.69,0 -15.55,-1.49 -20.59,-4.45 -5.02,-2.98 -8.43,-5.99 -10.22,-9.06 -1.8,-3.05 -2.88,-5.3 -3.27,-6.72l13.3 -5.32c1.19,5.28 3.29,10.07 6.29,14.4 2.98,4.32 7.33,6.48 13,6.48 4.78,0 8.87,-1.28 12.26,-3.8 3.39,-2.53 5.1,-5.97 5.1,-10.31 0,-5.08 -1.77,-9.17 -5.3,-12.26 -3.52,-3.11 -9.02,-6.68 -16.5,-10.75 -7.48,-4.04 -13.04,-7.83 -16.69,-11.33 -3.65,-3.5 -5.49,-8.15 -5.49,-13.93 0,-3.59 0.95,-7.03 2.85,-10.27 1.9,-3.24 4.65,-5.86 8.26,-7.83 3.61,-1.97 7.76,-2.94 12.46,-2.94 1.1,0 2.14,0 3.11,0.02 0.98,0.02 1.97,0.21 3.03,0.54 1.54,0.39 3.72,1.06 6.55,2.03 2.85,0.97 4.93,1.45 6.25,1.45 1.19,0 2.14,-0.43 2.87,-1.3 0.76,-0.86 1.19,-1.77 1.3,-2.74l0.91 0 1.58 0 2.96 27.5 -2.98 0 -2.1 -5.28c-0.58,-1.47 -1.19,-2.79 -1.8,-3.96 -0.63,-1.17 -1.45,-2.51 -2.51,-4.04 -1.81,-2.62 -4.24,-4.93 -7.24,-6.94 -3.03,-2.01 -6.61,-3.01 -10.74,-3.01 -3.33,0 -6.57,1.23 -9.69,3.68 -3.13,2.44 -4.69,5.58 -4.69,9.39 0,3.91 1.71,7.18 5.11,9.75 3.39,2.57 9.06,5.99 16.97,10.3 7.91,4.28 13.9,8.39 17.93,12.35 4.04,3.96 6.05,8.99 6.05,15.11zm66.07 -36.56c0,-6.85 -1.21,-12.07 -3.61,-15.61 -2.4,-3.57 -5.02,-5.86 -7.83,-6.87 -2.81,-1.02 -5.28,-1.52 -7.37,-1.52 -2.38,0 -4.97,0.5 -7.83,1.49 -2.85,1 -5.47,3.29 -7.83,6.85 -2.36,3.57 -3.55,8.8 -3.55,15.66l0 47.72c0,3.18 0.82,5.34 2.46,6.49 1.65,1.15 4.3,1.71 7.94,1.71 0.32,0 0.5,0.45 0.5,1.38 0,0.56 -0.13,0.87 -0.39,0.95l-33.6 0c-0.26,0 -0.39,-0.39 -0.39,-1.19 0,-0.69 0.13,-1.06 0.39,-1.15 3.7,0 6.35,-0.56 7.98,-1.69 1.6,-1.12 2.4,-3.28 2.4,-6.48l0 -48.11c0,-3.59 0.61,-6.98 1.84,-10.16 1.23,-3.2 3.13,-6.1 5.73,-8.69 2.59,-2.61 5.93,-4.67 10.01,-6.23 4.06,-1.53 8.8,-2.31 14.2,-2.31 5.45,0 10.2,0.78 14.27,2.31 4.09,1.56 7.35,3.57 9.81,6.1 2.46,2.51 4.35,5.43 5.65,8.76 1.28,3.31 1.92,6.72 1.92,10.23l0 48.11c0,3.2 0.82,5.36 2.44,6.48 1.62,1.13 4.22,1.69 7.76,1.69 0.37,0 0.56,0.39 0.56,1.15 0,0.71 -0.19,1.1 -0.56,1.19l-33.56 0 0.13 -1.43 0 -0.91c3.63,0 6.29,-0.56 7.98,-1.71 1.69,-1.15 2.53,-3.31 2.53,-6.49l0 -47.72zm76.49 6.53l3.61 6.16c0.97,1.62 2.07,3.16 3.31,4.59 1.23,1.45 2.66,2.64 4.32,3.54 1.65,0.91 3.59,1.36 5.84,1.36l0.3 1.02 0.2 1.34c0,0.54 -0.17,0.84 -0.5,0.89l-13.67 0c-0.89,0 -1.69,-0.09 -2.4,-0.26 -0.72,-0.17 -1.54,-0.5 -2.42,-1.02 -1.47,-0.8 -2.72,-1.77 -3.74,-2.9 -0.8,-1.02 -1.64,-2.2 -2.51,-3.57 -0.86,-1.34 -1.83,-2.96 -2.94,-4.87 -2.08,-3.63 -3.63,-6.12 -4.65,-7.46 -1.02,-1.32 -2.14,-1.99 -3.42,-1.99l-6.03 0 0 43.96c0,2.92 0.99,5.08 2.98,6.48 1.96,1.41 4.45,2.1 7.39,2.1 0.26,0 0.39,0.39 0.39,1.15 0,0.71 -0.13,1.1 -0.39,1.19l-33.47 0c-0.26,0 -0.39,-0.39 -0.39,-1.19 0,-0.69 0.13,-1.06 0.39,-1.15 3.55,0 6.16,-0.63 7.85,-1.9 1.69,-1.28 2.53,-3.5 2.53,-6.68l0 -63.79c0,-3.18 -0.69,-5.41 -2.05,-6.68 -1.36,-1.28 -3.81,-1.9 -7.31,-1.9 -0.32,0 -0.5,-0.39 -0.5,-1.19 0,-0.74 0.17,-1.1 0.5,-1.15l31.55 0c0.26,0 0.39,0.39 0.39,1.15 0,0.76 -0.17,1.15 -0.5,1.19 -6.25,0 -9.36,2.85 -9.36,8.58l0 15.42 14.59 -0.26c2.29,0 4.19,0.74 5.71,2.23 0.78,0.67 1.51,1.49 2.22,2.42 0.72,0.93 1.45,1.99 2.17,3.18zm37.76 -3.61l0 44.43c0,3 1.02,5.17 3.05,6.53 2.01,1.36 4.48,2.03 7.35,2.03 0.32,0 0.5,0.41 0.5,1.25 0,0.72 -0.13,1.08 -0.39,1.08l-33.6 0c-0.26,0 -0.39,-0.39 -0.39,-1.19 0,-0.69 0.13,-1.06 0.39,-1.15 3.63,0 6.27,-0.63 7.91,-1.9 1.64,-1.28 2.46,-3.48 2.46,-6.66l0 -45.36c0,-4.65 1.08,-9.28 3.22,-13.91 2.16,-4.6 5.62,-8.39 10.36,-11.37 4.76,-2.98 10.66,-4.48 17.71,-4.48l11.29 0c9.75,0 17.21,1.97 22.35,5.88 5.15,3.93 8.5,7.87 10.01,11.85 1.39,3.81 2.19,6.75 2.4,8.87l8.04 0 3.87 0.37c1.9,0.26 4.13,0.85 6.72,1.73 2.57,0.91 4.95,2.27 7.16,4.09l-11.55 8.04c-1.15,-2.7 -2.9,-5.06 -5.3,-7.07 -2.38,-2.01 -4.63,-3.01 -6.74,-3.01l-1.97 0 0 18.83c0,3.29 -0.61,6.55 -1.84,9.81 -1.23,3.24 -3.11,6.27 -5.67,9.06 -2.55,2.79 -5.83,5.06 -9.88,6.79 -4.02,1.73 -8.54,2.59 -13.52,2.59 -9.13,0 -15.16,-2.36 -18.12,-7.05 -2.96,-4.69 -4.43,-10.21 -4.43,-16.52l0 -2.98c0,-7.61 1.64,-13.65 4.91,-18.06 3.26,-4.43 9.38,-6.64 18.33,-6.64l10.2 0 7.16 -0.19c0,-14.75 -7.44,-22.12 -22.31,-22.12l-11 0c-1.36,0 -3.01,0.3 -4.93,0.93 -1.91,0.61 -4,1.88 -6.27,3.83 -2.25,1.95 -4.07,4.67 -5.45,8.15 -1.36,3.5 -2.06,8 -2.06,13.49zm22.44 19.72c0,4.37 0.22,8.15 0.67,11.33 0.43,3.18 1.56,5.95 3.33,8.3 1.77,2.36 4.43,3.53 7.98,3.53 6.08,0 10.53,-2.04 13.36,-6.08 2.83,-4.06 4.24,-10.46 4.24,-19.22l0 -17.49 -2.33 -0.02 -3.81 0 -6.72 0c-4.97,0 -8.65,0.91 -11.05,2.7 -2.38,1.8 -3.91,4.06 -4.63,6.81 -0.69,2.72 -1.04,6.12 -1.04,10.14z"/>
  <path class="fil0" d="M4529.61 7892.8c0,5.06 -1.77,9.64 -5.32,13.73 -3.54,4.07 -8.19,7.29 -13.97,9.62 -5.77,2.36 -11.76,3.53 -17.96,3.53 -4.48,0 -8.48,-0.39 -12,-1.17 -3.53,-0.78 -6.72,-1.97 -9.6,-3.52 -5.36,-2.92 -9.02,-5.8 -10.98,-8.63 -1.97,-2.83 -3.16,-4.95 -3.59,-6.4l14.27 -5.19c0.58,2.92 1.73,5.93 3.42,9.04 1.69,3.14 4.02,5.84 7.03,8.11 1.51,1.1 3.16,1.93 4.91,2.49 1.75,0.58 3.63,0.86 5.67,0.86 9.75,0 16.26,-2.46 19.5,-7.42 3.26,-4.93 4.89,-10.51 4.89,-16.71 -0.63,-3.85 -1.54,-6.94 -2.72,-9.3 -1.19,-2.38 -3.2,-4.39 -6.07,-6.1 -2.87,-1.69 -6.87,-2.75 -11.98,-3.16l-4.93 0c-2.25,0 -4.45,0.19 -6.61,0.56 -2.19,0.39 -4.41,0.99 -6.68,1.84 -4.41,1.54 -7.35,3.98 -8.89,7.35l-13.99 -8.61c3.89,-3.26 11.24,-4.91 22.06,-4.91l18.44 0c3.24,0 6.01,-0.26 8.26,-0.76 2.27,-0.52 4.28,-1.84 6.05,-4 0.89,-1.08 1.6,-2.48 2.12,-4.17 0.54,-1.69 0.8,-3.57 0.8,-5.64 0,-3.11 -0.78,-6.03 -2.31,-8.76 -1.54,-2.72 -3.63,-4.89 -6.31,-6.47 -2.66,-1.58 -5.49,-2.38 -8.48,-2.38 -12.85,0 -21.69,7.18 -26.51,21.56l-2.72 0 3.5 -25.34 3.65 0c0.52,1.69 0.93,2.75 1.28,3.18 0.35,0.41 1.04,0.63 2.1,0.63 1.94,0 3.96,-0.54 6.07,-1.58 1.15,-0.56 2.12,-1.02 2.92,-1.36 0.8,-0.37 1.67,-0.69 2.59,-1 1.47,-0.5 4.09,-0.76 7.85,-0.76 5.8,0 10.88,0.91 15.27,2.72 4.41,1.81 7.83,4.35 10.27,7.57 2.44,3.22 3.67,6.72 3.67,10.49 0,5.81 -1.88,10.06 -5.67,12.69 -3.78,2.64 -6.96,4.26 -9.54,4.91 1.52,0.28 3.72,1.04 6.62,2.2 2.9,1.19 5.84,3.46 8.84,6.79 1.56,1.69 2.75,3.65 3.57,5.86 0.82,2.23 1.23,4.76 1.23,7.59zm77.5 -1.19c0,0.63 -0.06,1.36 -0.19,2.2 -0.13,0.87 -0.33,1.93 -0.63,3.24 -0.5,2.25 -1.32,4.58 -2.46,7 -1.13,2.44 -2.49,4.26 -4.09,5.49l5.81 0.02c10.98,0 18.68,1.81 23.13,5.47l-15.09 8.89c-1.06,-3.31 -3.52,-5.57 -7.44,-6.87 -3.91,-1.28 -8.04,-1.93 -12.39,-1.93 -1.47,0.8 -3.85,1.78 -7.11,2.88 -3.29,1.1 -6.44,1.67 -9.47,1.67 -5.58,0 -10.55,-0.76 -14.9,-2.3 -4.35,-1.51 -7.89,-3.59 -10.61,-6.25 -2.72,-2.64 -4.78,-5.62 -6.16,-8.97 -0.63,-1.69 -1.13,-3.39 -1.47,-5.1 -0.32,-1.71 -0.5,-3.44 -0.5,-5.17l0 -49c0,-3.09 -0.78,-5.15 -2.31,-6.16 -1.54,-1.02 -4.24,-1.51 -8.06,-1.51 -0.26,0 -0.39,-0.39 -0.39,-1.19 0,-0.69 0.13,-1.06 0.39,-1.15l33.6 0c0.26,0 0.39,0.35 0.39,1.02 0,0.84 -0.17,1.28 -0.5,1.32 -3.72,0 -6.4,0.5 -8.07,1.51 -1.56,1.06 -2.33,3.11 -2.33,6.16l0 47.46c0,15.92 7.09,23.87 21.3,23.87 5.49,0 10.38,-1.26 14.68,-3.74 4.32,-2.51 7.16,-5.79 8.5,-9.9 0.63,-1.9 1.13,-3.78 1.47,-5.64 0.32,-1.86 0.5,-3.7 0.5,-5.54 0,-3.55 -0.58,-6.46 -1.75,-8.78 -1.15,-2.31 -2.31,-3.98 -3.5,-5.02 -1.19,-1.04 -2.12,-1.73 -2.79,-2.06l0 -30.66c0,-3.05 -0.78,-5.08 -2.33,-6.12 -1.58,-1.04 -4.3,-1.56 -8.2,-1.56 -0.32,0 -0.5,-0.43 -0.5,-1.32 0,-0.61 0.13,-0.93 0.39,-1.02l33.62 0c0.32,0 0.5,0.39 0.5,1.15 0,0.76 -0.17,1.15 -0.5,1.19 -3.76,0 -6.46,0.5 -8.09,1.49 -1.62,0.99 -2.44,3.05 -2.44,6.18l0 48.72zm91.15 1.93l0 -6.92c0,-3.13 -0.58,-5.17 -1.77,-6.09 -0.61,-0.46 -1.43,-0.85 -2.49,-1.13 -1.06,-0.3 -2.36,-0.45 -3.93,-0.45 -0.33,0 -0.5,-0.46 -0.5,-1.36 0,-0.59 0.13,-0.91 0.39,-0.97l29.06 0c0.26,0 0.39,0.39 0.39,1.15 0,0.71 -0.13,1.1 -0.39,1.19 -1.92,0 -3.52,0.26 -4.73,0.76 -0.98,0.39 -1.71,1.1 -2.19,2.16 -0.5,1.06 -0.74,2.68 -0.74,4.87l0 6.27c0,3.35 -0.65,6.62 -1.97,9.8 -1.3,3.2 -3.28,6.04 -5.92,8.52 -2.64,2.49 -6.08,4.52 -10.31,6.06 -4.24,1.54 -9.08,2.31 -14.49,2.31 -7.13,0 -13.08,-1.34 -17.86,-4 -4.76,-2.66 -8.28,-6.08 -10.53,-10.3 -2.27,-4.19 -3.39,-8.6 -3.39,-13.21l0 -44.37 -6.9 0c-1.49,-0.11 -3.11,-0.37 -4.93,-0.76 -1.8,-0.37 -4.02,-0.93 -6.68,-1.64 -4.93,-1.39 -8.76,-3.74 -11.46,-7.07l12.48 -10.77c0,1.77 1.15,3.96 3.46,6.57 2.29,2.62 5.21,4.89 8.76,6.83 3.55,1.94 6.92,2.92 10.07,2.92l8.04 0 0 46.72c0,6.81 1.21,12.02 3.61,15.66 2.4,3.63 5.06,5.99 7.91,7.09 2.88,1.1 5.32,1.64 7.29,1.64 2.29,0 4.91,-0.45 7.83,-1.34 2.94,-0.89 5.67,-2.92 8.15,-6.12 2.48,-3.2 3.74,-7.87 3.74,-14.01zm102.13 -30.04l-26.72 0 0 27.5c0,6.88 1.19,12.09 3.55,15.61 2.35,3.53 4.97,5.78 7.78,6.77 2.83,1 5.45,1.49 7.87,1.49 2.31,0 4.87,-0.47 7.63,-1.43 2.77,-0.95 5.32,-3.13 7.65,-6.57 2.35,-3.44 3.52,-8.43 3.52,-14.96l0 -0.39c0,-3.16 -0.43,-5.23 -1.32,-6.2 -0.48,-0.46 -1.19,-0.82 -2.12,-1.06 -0.95,-0.26 -2.19,-0.39 -3.72,-0.39 -0.32,0 -0.5,-0.5 -0.5,-1.52 0,-0.65 0.13,-0.99 0.39,-1.08l27.11 0c0.26,0 0.39,0.43 0.39,1.32 0,0.78 -0.13,1.19 -0.39,1.28 -1.99,0 -3.52,0.24 -4.59,0.69 -0.93,0.3 -1.62,0.97 -2.03,2.03 -0.35,1.1 -0.52,2.74 -0.52,4.95l0 1.71c0,1.56 -0.15,3.14 -0.43,4.72 -0.3,1.58 -0.78,3.18 -1.41,4.78 -1.19,2.96 -3.05,5.75 -5.6,8.35 -2.55,2.59 -5.88,4.67 -9.97,6.25 -4.11,1.56 -8.84,2.34 -14.25,2.34 -7.13,0 -13.1,-1.3 -17.88,-3.89 -4.8,-2.62 -8.3,-6.06 -10.55,-10.31 -2.23,-4.28 -3.35,-8.71 -3.35,-13.34l0 -48.35c0,-3.18 -0.69,-5.39 -2.07,-6.66 -1.36,-1.28 -3.81,-1.9 -7.27,-1.9 -0.35,0 -0.52,-0.39 -0.52,-1.19 0,-0.74 0.17,-1.1 0.5,-1.15l31.61 0c0.3,0 0.45,0.39 0.45,1.15 0,0.71 -0.19,1.1 -0.56,1.19 -2.83,0 -5.1,0.67 -6.83,2.03 -1.73,1.36 -2.59,3.55 -2.59,6.55l0 15.42 36.41 0c1.51,0 2.66,0.02 3.41,0.06 3.89,0.22 5.91,0.33 6.04,0.33 1.6,0 3.2,0.15 4.8,0.45 0.89,0.15 2.7,0.58 5.45,1.3 2.74,0.69 5.02,1.79 6.79,3.33l-14.51 8.93c-0.71,-1.36 -2.12,-2.85 -4.22,-4.5 -2.09,-1.62 -4.63,-2.96 -7.63,-4.02 -3.01,-1.06 -6.27,-1.6 -9.82,-1.6zm93.61 55.01l0 -25.94 -2.9 1.94c-1.77,1.23 -4.04,2.36 -6.79,3.39 -2.77,1.02 -6.12,1.54 -10.08,1.54 -7.11,0 -12.95,-1.3 -17.47,-3.91 -4.52,-2.59 -7.85,-6.03 -9.95,-10.27 -2.09,-4.24 -3.15,-8.71 -3.15,-13.41l0 -5.34c0,-3.31 -0.67,-5.56 -2.04,-6.77 -1.36,-1.21 -3.85,-1.82 -7.44,-1.82 -0.26,0 -0.39,-0.41 -0.39,-1.25 0,-0.71 0.13,-1.08 0.39,-1.08l31.78 0c0.04,0.09 0.11,0.2 0.17,0.37 0.07,0.15 0.09,0.35 0.09,0.58 0,0.84 -0.13,1.3 -0.39,1.38 -6.31,0 -9.47,2.85 -9.47,8.59l0 3.63c0,2.75 0.17,5.15 0.5,7.18 0.35,2.03 0.91,3.96 1.71,5.73 1.47,3.26 3.24,5.67 5.3,7.2 2.07,1.51 3.87,2.51 5.38,2.98l5.6 1.02c4.8,0 9.19,-0.95 13.17,-2.85 3.98,-1.9 5.97,-4.67 5.97,-8.3l0 -39.31c0,-3.16 -0.69,-5.39 -2.07,-6.66 -1.41,-1.28 -3.85,-1.9 -7.35,-1.9 -0.28,0 -0.43,-0.39 -0.43,-1.19 0,-0.74 0.15,-1.1 0.45,-1.15l31.72 0c0.04,0 0.11,0.09 0.17,0.24 0.06,0.15 0.09,0.41 0.09,0.78 0,0.8 -0.13,1.23 -0.39,1.32 -6.31,0 -9.47,2.85 -9.47,8.56l0 70.19 4.69 0c13,0 21.77,1.86 26.29,5.56l-14.55 8.97c-0.54,-1.06 -1.49,-2.18 -2.83,-3.37 -1.32,-1.21 -2.9,-2.3 -4.72,-3.27 -1.57,-0.8 -3.8,-1.6 -6.68,-2.4 -2.53,-0.63 -5.17,-0.95 -7.87,-0.95l-7.05 0zm120.57 -72.78c-0.97,-0.54 -2.83,-1.28 -5.6,-2.16 -2.77,-0.89 -6.27,-1.32 -10.49,-1.32 -8.63,0 -17.23,2.44 -25.84,7.37l8.28 -17.25 7.28 -0.26c12.39,0 22.34,2.06 29.91,6.19 7.57,4.11 12.8,8.22 15.72,12.35 2.89,4.11 4.73,7.18 5.51,9.21l-3.87 1.58c-3.13,-4.76 -6.49,-7.93 -10.07,-9.54 -3.59,-1.6 -7.37,-2.4 -11.35,-2.4l-3.41 0c-2.53,0 -4.98,0.34 -7.31,1.04 -2.33,0.71 -4.67,1.75 -7,3.16 -4.3,2.62 -7.76,6.38 -10.38,11.31 -2.62,4.93 -3.94,10.66 -3.94,17.17 0,4.91 0.61,9.32 1.84,13.26 1.23,3.93 2.94,7.35 5.13,10.25 2.2,2.9 4.71,5.12 7.5,6.68 2.81,1.58 5.95,2.57 9.43,3.05l3.35 0c6.55,0 11.61,-1.84 15.2,-5.51 3.59,-3.68 5.94,-7.35 7.09,-11.01 0.56,-1.86 0.97,-3.44 1.23,-4.73 0.28,-1.28 0.48,-2.44 0.61,-3.5l13.13 -6.9 0.24 2.53 0.13 2.66c0,1.06 -0.19,2.27 -0.61,3.61 -0.39,1.36 -0.99,2.92 -1.79,4.69 -1.36,3.31 -3.63,6.7 -6.85,10.2 -2.98,3.37 -7.2,6.27 -12.61,8.65 -5.41,2.4 -11.85,3.59 -19.37,3.59 -6.38,0 -12.41,-1.56 -18.07,-4.65 -5.69,-3.11 -10.27,-7.35 -13.73,-12.72 -3.46,-5.36 -5.19,-11.2 -5.19,-17.49l0 -5.06c0,-5.08 1.67,-10.31 4.97,-15.7 3.31,-5.38 8.04,-9.84 14.19,-13.34 6.14,-3.5 13.26,-5.26 21.32,-5.26l5.45 0.26zm108.4 33.75l0 6.85c0,2.23 0.26,3.91 0.8,5 0.52,1.1 1.43,1.9 2.7,2.42 0.58,0.17 1.34,0.32 2.25,0.5 0.91,0.17 1.84,0.26 2.81,0.26 0.26,0 0.39,0.43 0.39,1.32 0,0.87 -0.13,1.32 -0.39,1.41l-29.45 0c-0.26,0 -0.39,-0.39 -0.39,-1.15 0,-0.97 0.13,-1.49 0.39,-1.58 2.96,0 5.06,-0.56 6.29,-1.71 1.26,-1.15 1.88,-3.29 1.88,-6.46l0 -5.58c0,-5.28 -0.76,-9.52 -2.27,-12.71 -1.54,-3.22 -3.35,-5.54 -5.45,-6.96 -2.12,-1.45 -3.93,-2.35 -5.45,-2.72 -0.3,-0.09 -1.1,-0.26 -2.38,-0.52 -1.3,-0.24 -2.38,-0.43 -3.26,-0.56 -5.04,0 -9.49,1.08 -13.36,3.24 -3.89,2.17 -5.84,4.85 -5.84,8.04l0 39.03c0,3 1.02,5.19 3.05,6.55 2.01,1.36 4.48,2.03 7.35,2.03 0.32,0 0.5,0.41 0.5,1.25 0,0.72 -0.13,1.08 -0.39,1.08l-33.6 0c-0.26,0 -0.39,-0.39 -0.39,-1.19 0,-0.69 0.13,-1.06 0.39,-1.15 3.63,0 6.27,-0.63 7.91,-1.9 1.64,-1.28 2.46,-3.5 2.46,-6.68l0 -63.79c0,-3.18 -0.69,-5.41 -2.07,-6.68 -1.36,-1.28 -3.81,-1.9 -7.27,-1.9 -0.35,0 -0.52,-0.39 -0.52,-1.19 0,-0.74 0.17,-1.1 0.5,-1.15l31.61 0c0.3,0 0.45,0.39 0.45,1.15 0,0.71 -0.19,1.1 -0.56,1.19 -2.83,0 -5.1,0.67 -6.83,2.03 -1.73,1.36 -2.59,3.55 -2.59,6.55l0 15.16c0,0.09 0.02,0.15 0.09,0.22 0.07,0.06 0.13,0.13 0.17,0.17l2.79 -1.99c1.82,-1.26 4.07,-2.42 6.75,-3.46 2.68,-1.04 5.88,-1.56 9.64,-1.56 5.58,0 10.36,0.72 14.31,2.12 3.98,1.43 7.2,3.35 9.69,5.81 2.48,2.44 4.32,5.32 5.51,8.61 0.58,1.67 1.04,3.33 1.34,5.02 0.28,1.69 0.43,3.55 0.43,5.58zm81.66 14.06l0 -6.92c0,-3.13 -0.58,-5.17 -1.77,-6.09 -0.61,-0.46 -1.43,-0.85 -2.49,-1.13 -1.06,-0.3 -2.36,-0.45 -3.93,-0.45 -0.33,0 -0.5,-0.46 -0.5,-1.36 0,-0.59 0.13,-0.91 0.39,-0.97l29.06 0c0.26,0 0.39,0.39 0.39,1.15 0,0.71 -0.13,1.1 -0.39,1.19 -1.92,0 -3.52,0.26 -4.73,0.76 -0.98,0.39 -1.71,1.1 -2.19,2.16 -0.5,1.06 -0.74,2.68 -0.74,4.87l0 6.27c0,3.35 -0.65,6.62 -1.97,9.8 -1.3,3.2 -3.28,6.04 -5.92,8.52 -2.64,2.49 -6.08,4.52 -10.31,6.06 -4.24,1.54 -9.08,2.31 -14.49,2.31 -7.13,0 -13.08,-1.34 -17.86,-4 -4.76,-2.66 -8.28,-6.08 -10.53,-10.3 -2.27,-4.19 -3.39,-8.6 -3.39,-13.21l0 -44.37 -6.9 0c-1.49,-0.11 -3.11,-0.37 -4.93,-0.76 -1.8,-0.37 -4.02,-0.93 -6.68,-1.64 -4.93,-1.39 -8.76,-3.74 -11.46,-7.07l12.48 -10.77c0,1.77 1.15,3.96 3.46,6.57 2.29,2.62 5.21,4.89 8.76,6.83 3.55,1.94 6.92,2.92 10.07,2.92l8.04 0 0 46.72c0,6.81 1.21,12.02 3.61,15.66 2.4,3.63 5.06,5.99 7.91,7.09 2.88,1.1 5.32,1.64 7.29,1.64 2.29,0 4.91,-0.45 7.83,-1.34 2.94,-0.89 5.67,-2.92 8.15,-6.12 2.48,-3.2 3.74,-7.87 3.74,-14.01zm93.83 -1.93c0,0.63 -0.06,1.36 -0.19,2.2 -0.13,0.87 -0.33,1.93 -0.63,3.24 -0.5,2.25 -1.32,4.58 -2.46,7 -1.13,2.44 -2.49,4.26 -4.09,5.49l5.81 0.02c10.98,0 18.68,1.81 23.13,5.47l-15.09 8.89c-1.06,-3.31 -3.52,-5.57 -7.44,-6.87 -3.91,-1.28 -8.04,-1.93 -12.39,-1.93 -1.47,0.8 -3.85,1.78 -7.11,2.88 -3.29,1.1 -6.44,1.67 -9.47,1.67 -5.58,0 -10.55,-0.76 -14.9,-2.3 -4.35,-1.51 -7.89,-3.59 -10.61,-6.25 -2.72,-2.64 -4.78,-5.62 -6.16,-8.97 -0.63,-1.69 -1.13,-3.39 -1.47,-5.1 -0.32,-1.71 -0.5,-3.44 -0.5,-5.17l0 -49c0,-3.09 -0.78,-5.15 -2.31,-6.16 -1.54,-1.02 -4.24,-1.51 -8.06,-1.51 -0.26,0 -0.39,-0.39 -0.39,-1.19 0,-0.69 0.13,-1.06 0.39,-1.15l33.6 0c0.26,0 0.39,0.35 0.39,1.02 0,0.84 -0.17,1.28 -0.5,1.32 -3.72,0 -6.4,0.5 -8.07,1.51 -1.56,1.06 -2.33,3.11 -2.33,6.16l0 47.46c0,15.92 7.09,23.87 21.3,23.87 5.49,0 10.38,-1.26 14.68,-3.74 4.32,-2.51 7.16,-5.79 8.5,-9.9 0.63,-1.9 1.13,-3.78 1.47,-5.64 0.32,-1.86 0.5,-3.7 0.5,-5.54 0,-3.55 -0.58,-6.46 -1.75,-8.78 -1.15,-2.31 -2.31,-3.98 -3.5,-5.02 -1.19,-1.04 -2.12,-1.73 -2.79,-2.06l0 -30.66c0,-3.05 -0.78,-5.08 -2.33,-6.12 -1.58,-1.04 -4.3,-1.56 -8.2,-1.56 -0.32,0 -0.5,-0.43 -0.5,-1.32 0,-0.61 0.13,-0.93 0.39,-1.02l33.62 0c0.32,0 0.5,0.39 0.5,1.15 0,0.76 -0.17,1.15 -0.5,1.19 -3.76,0 -6.46,0.5 -8.09,1.49 -1.62,0.99 -2.44,3.05 -2.44,6.18l0 48.72zm90.11 -31.74l0 5.71c0,2.22 0.26,3.91 0.8,4.99 0.52,1.1 1.43,1.91 2.7,2.42 0.58,0.17 1.34,0.33 2.25,0.5 0.91,0.17 1.84,0.26 2.81,0.26 0.26,0 0.39,0.43 0.39,1.32 0,0.86 -0.13,1.32 -0.39,1.41l-29.45 0c-0.26,0 -0.39,-0.39 -0.39,-1.15 0,-0.97 0.13,-1.49 0.39,-1.57 2.96,0 5.06,-0.56 6.29,-1.71 1.26,-1.15 1.88,-3.31 1.88,-6.46l0 -4.13c0,-6.79 -1.21,-12 -3.61,-15.59 -2.4,-3.59 -5.02,-5.9 -7.83,-6.92 -2.81,-1.02 -5.28,-1.51 -7.37,-1.51 -2.38,0 -4.97,0.5 -7.83,1.49 -2.85,1 -5.47,3.29 -7.83,6.85 -2.36,3.57 -3.55,8.8 -3.55,15.7l0 46.14c0,3 1.02,5.19 3.05,6.53 2.01,1.36 4.48,2.03 7.35,2.03 0.32,0 0.5,0.41 0.5,1.25 0,0.72 -0.13,1.08 -0.39,1.08l-33.6 0c-0.26,0 -0.39,-0.39 -0.39,-1.19 0,-0.69 0.13,-1.06 0.39,-1.15 3.63,0 6.27,-0.63 7.91,-1.9 1.64,-1.28 2.46,-3.48 2.46,-6.66l0 -47.72c0,-3.59 0.61,-6.98 1.84,-10.16 1.23,-3.2 3.13,-6.1 5.73,-8.69 2.59,-2.61 5.93,-4.67 10.01,-6.23 4.06,-1.53 8.8,-2.31 14.2,-2.31 5.45,0 10.2,0.78 14.27,2.31 4.09,1.54 7.35,3.57 9.81,6.08 2.46,2.53 4.35,5.43 5.65,8.76 1.28,3.31 1.92,6.72 1.92,10.23zm79.97 31.74c0,0.63 -0.06,1.36 -0.19,2.2 -0.13,0.87 -0.33,1.93 -0.63,3.24 -0.5,2.25 -1.32,4.58 -2.46,7 -1.13,2.44 -2.49,4.26 -4.09,5.49l5.81 0.02c10.98,0 18.68,1.81 23.13,5.47l-15.09 8.89c-1.06,-3.31 -3.52,-5.57 -7.44,-6.87 -3.91,-1.28 -8.04,-1.93 -12.39,-1.93 -1.47,0.8 -3.85,1.78 -7.11,2.88 -3.29,1.1 -6.44,1.67 -9.47,1.67 -5.58,0 -10.55,-0.76 -14.9,-2.3 -4.35,-1.51 -7.89,-3.59 -10.61,-6.25 -2.72,-2.64 -4.78,-5.62 -6.16,-8.97 -0.63,-1.69 -1.13,-3.39 -1.47,-5.1 -0.32,-1.71 -0.5,-3.44 -0.5,-5.17l0 -49c0,-3.09 -0.78,-5.15 -2.31,-6.16 -1.54,-1.02 -4.24,-1.51 -8.06,-1.51 -0.26,0 -0.39,-0.39 -0.39,-1.19 0,-0.69 0.13,-1.06 0.39,-1.15l33.6 0c0.26,0 0.39,0.35 0.39,1.02 0,0.84 -0.17,1.28 -0.5,1.32 -3.72,0 -6.4,0.5 -8.07,1.51 -1.56,1.06 -2.33,3.11 -2.33,6.16l0 47.46c0,15.92 7.09,23.87 21.3,23.87 5.49,0 10.38,-1.26 14.68,-3.74 4.32,-2.51 7.16,-5.79 8.5,-9.9 0.63,-1.9 1.13,-3.78 1.47,-5.64 0.32,-1.86 0.5,-3.7 0.5,-5.54 0,-3.55 -0.58,-6.46 -1.75,-8.78 -1.15,-2.31 -2.31,-3.98 -3.5,-5.02 -1.19,-1.04 -2.12,-1.73 -2.79,-2.06l0 -30.66c0,-3.05 -0.78,-5.08 -2.33,-6.12 -1.58,-1.04 -4.3,-1.56 -8.2,-1.56 -0.32,0 -0.5,-0.43 -0.5,-1.32 0,-0.61 0.13,-0.93 0.39,-1.02l33.62 0c0.32,0 0.5,0.39 0.5,1.15 0,0.76 -0.17,1.15 -0.5,1.19 -3.76,0 -6.46,0.5 -8.09,1.49 -1.62,0.99 -2.44,3.05 -2.44,6.18l0 48.72zm90.11 -31.74l0 5.71c0,2.22 0.26,3.91 0.8,4.99 0.52,1.1 1.43,1.91 2.7,2.42 0.58,0.17 1.34,0.33 2.25,0.5 0.91,0.17 1.84,0.26 2.81,0.26 0.26,0 0.39,0.43 0.39,1.32 0,0.86 -0.13,1.32 -0.39,1.41l-29.45 0c-0.26,0 -0.39,-0.39 -0.39,-1.15 0,-0.97 0.13,-1.49 0.39,-1.57 2.96,0 5.06,-0.56 6.29,-1.71 1.26,-1.15 1.88,-3.31 1.88,-6.46l0 -4.13c0,-6.79 -1.21,-12 -3.61,-15.59 -2.4,-3.59 -5.02,-5.9 -7.83,-6.92 -2.81,-1.02 -5.28,-1.51 -7.37,-1.51 -2.38,0 -4.97,0.5 -7.83,1.49 -2.85,1 -5.47,3.29 -7.83,6.85 -2.36,3.57 -3.55,8.8 -3.55,15.7l0 46.14c0,3 1.02,5.19 3.05,6.53 2.01,1.36 4.48,2.03 7.35,2.03 0.32,0 0.5,0.41 0.5,1.25 0,0.72 -0.13,1.08 -0.39,1.08l-33.6 0c-0.26,0 -0.39,-0.39 -0.39,-1.19 0,-0.69 0.13,-1.06 0.39,-1.15 3.63,0 6.27,-0.63 7.91,-1.9 1.64,-1.28 2.46,-3.48 2.46,-6.66l0 -47.72c0,-3.59 0.61,-6.98 1.84,-10.16 1.23,-3.2 3.13,-6.1 5.73,-8.69 2.59,-2.61 5.93,-4.67 10.01,-6.23 4.06,-1.53 8.8,-2.31 14.2,-2.31 5.45,0 10.2,0.78 14.27,2.31 4.09,1.54 7.35,3.57 9.81,6.08 2.46,2.53 4.35,5.43 5.65,8.76 1.28,3.31 1.92,6.72 1.92,10.23zm67.13 0.39c0,-6.85 -1.21,-12.07 -3.61,-15.61 -2.4,-3.57 -5.02,-5.86 -7.83,-6.87 -2.81,-1.02 -5.28,-1.52 -7.37,-1.52 -2.38,0 -4.97,0.5 -7.83,1.49 -2.85,1 -5.47,3.29 -7.83,6.85 -2.36,3.57 -3.55,8.8 -3.55,15.66l0 47.72c0,3.18 0.82,5.34 2.46,6.49 1.65,1.15 4.3,1.71 7.94,1.71 0.32,0 0.5,0.45 0.5,1.38 0,0.56 -0.13,0.87 -0.39,0.95l-33.6 0c-0.26,0 -0.39,-0.39 -0.39,-1.19 0,-0.69 0.13,-1.06 0.39,-1.15 3.7,0 6.35,-0.56 7.98,-1.69 1.6,-1.12 2.4,-3.28 2.4,-6.48l0 -48.11c0,-3.59 0.61,-6.98 1.84,-10.16 1.23,-3.2 3.13,-6.1 5.73,-8.69 2.59,-2.61 5.93,-4.67 10.01,-6.23 4.06,-1.53 8.8,-2.31 14.2,-2.31 5.45,0 10.2,0.78 14.27,2.31 4.09,1.56 7.35,3.57 9.81,6.1 2.46,2.51 4.35,5.43 5.65,8.76 1.28,3.31 1.92,6.72 1.92,10.23l0 48.11c0,3.2 0.82,5.36 2.44,6.48 1.62,1.13 4.22,1.69 7.76,1.69 0.37,0 0.56,0.39 0.56,1.15 0,0.71 -0.19,1.1 -0.56,1.19l-33.56 0 0.13 -1.43 0 -0.91c3.63,0 6.29,-0.56 7.98,-1.71 1.69,-1.15 2.53,-3.31 2.53,-6.49l0 -47.72zm76.49 6.53l3.61 6.16c0.97,1.62 2.07,3.16 3.31,4.59 1.23,1.45 2.66,2.64 4.32,3.54 1.65,0.91 3.59,1.36 5.84,1.36l0.3 1.02 0.2 1.34c0,0.54 -0.17,0.84 -0.5,0.89l-13.67 0c-0.89,0 -1.69,-0.09 -2.4,-0.26 -0.72,-0.17 -1.54,-0.5 -2.42,-1.02 -1.47,-0.8 -2.72,-1.77 -3.74,-2.9 -0.8,-1.02 -1.64,-2.2 -2.51,-3.57 -0.86,-1.34 -1.83,-2.96 -2.94,-4.87 -2.08,-3.63 -3.63,-6.12 -4.65,-7.46 -1.02,-1.32 -2.14,-1.99 -3.42,-1.99l-6.03 0 0 43.96c0,2.92 0.99,5.08 2.98,6.48 1.96,1.41 4.45,2.1 7.39,2.1 0.26,0 0.39,0.39 0.39,1.15 0,0.71 -0.13,1.1 -0.39,1.19l-33.47 0c-0.26,0 -0.39,-0.39 -0.39,-1.19 0,-0.69 0.13,-1.06 0.39,-1.15 3.55,0 6.16,-0.63 7.85,-1.9 1.69,-1.28 2.53,-3.5 2.53,-6.68l0 -63.79c0,-3.18 -0.69,-5.41 -2.05,-6.68 -1.36,-1.28 -3.81,-1.9 -7.31,-1.9 -0.32,0 -0.5,-0.39 -0.5,-1.19 0,-0.74 0.17,-1.1 0.5,-1.15l31.55 0c0.26,0 0.39,0.39 0.39,1.15 0,0.76 -0.17,1.15 -0.5,1.19 -6.25,0 -9.36,2.85 -9.36,8.58l0 15.42 14.59 -0.26c2.29,0 4.19,0.74 5.71,2.23 0.78,0.67 1.51,1.49 2.22,2.42 0.72,0.93 1.45,1.99 2.17,3.18z"/>
  <path class="fil0" d="M5740.03 7863.18l0 44.43c0,3 1.02,5.17 3.05,6.53 2.01,1.36 4.48,2.03 7.35,2.03 0.32,0 0.5,0.41 0.5,1.25 0,0.72 -0.13,1.08 -0.39,1.08l-33.6 0c-0.26,0 -0.39,-0.39 -0.39,-1.19 0,-0.69 0.13,-1.06 0.39,-1.15 3.63,0 6.27,-0.63 7.91,-1.9 1.64,-1.28 2.46,-3.48 2.46,-6.66l0 -45.36c0,-4.65 1.08,-9.28 3.22,-13.91 2.16,-4.6 5.62,-8.39 10.36,-11.37 4.76,-2.98 10.66,-4.48 17.71,-4.48l11.29 0c9.75,0 17.21,1.97 22.35,5.88 5.15,3.93 8.5,7.87 10.01,11.85 1.39,3.81 2.19,6.75 2.4,8.87l8.04 0 3.87 0.37c1.9,0.26 4.13,0.85 6.72,1.73 2.57,0.91 4.95,2.27 7.16,4.09l-11.55 8.04c-1.15,-2.7 -2.9,-5.06 -5.3,-7.07 -2.38,-2.01 -4.63,-3.01 -6.74,-3.01l-1.97 0 0 18.83c0,3.29 -0.61,6.55 -1.84,9.81 -1.23,3.24 -3.11,6.27 -5.67,9.06 -2.55,2.79 -5.83,5.06 -9.88,6.79 -4.02,1.73 -8.54,2.59 -13.52,2.59 -9.13,0 -15.16,-2.36 -18.12,-7.05 -2.96,-4.69 -4.43,-10.21 -4.43,-16.52l0 -2.98c0,-7.61 1.64,-13.65 4.91,-18.06 3.26,-4.43 9.38,-6.64 18.33,-6.64l10.2 0 7.16 -0.19c0,-14.75 -7.44,-22.12 -22.31,-22.12l-11 0c-1.36,0 -3.01,0.3 -4.93,0.93 -1.91,0.61 -4,1.88 -6.27,3.83 -2.25,1.95 -4.07,4.67 -5.45,8.15 -1.36,3.5 -2.06,8 -2.06,13.49zm22.44 19.72c0,4.37 0.22,8.15 0.67,11.33 0.43,3.18 1.56,5.95 3.33,8.3 1.77,2.36 4.43,3.53 7.98,3.53 6.08,0 10.53,-2.04 13.36,-6.08 2.83,-4.06 4.24,-10.46 4.24,-19.22l0 -17.49 -2.33 -0.02 -3.81 0 -6.72 0c-4.97,0 -8.65,0.91 -11.05,2.7 -2.38,1.8 -3.91,4.06 -4.63,6.81 -0.69,2.72 -1.04,6.12 -1.04,10.14zm141.07 9.9c0,5.06 -1.77,9.64 -5.32,13.73 -3.54,4.07 -8.19,7.29 -13.97,9.62 -5.77,2.36 -11.76,3.53 -17.96,3.53 -4.48,0 -8.48,-0.39 -12,-1.17 -3.53,-0.78 -6.72,-1.97 -9.6,-3.52 -5.36,-2.92 -9.02,-5.8 -10.98,-8.63 -1.97,-2.83 -3.16,-4.95 -3.59,-6.4l14.27 -5.19c0.58,2.92 1.73,5.93 3.42,9.04 1.69,3.14 4.02,5.84 7.03,8.11 1.51,1.1 3.16,1.93 4.91,2.49 1.75,0.58 3.63,0.86 5.67,0.86 9.75,0 16.26,-2.46 19.5,-7.42 3.26,-4.93 4.89,-10.51 4.89,-16.71 -0.63,-3.85 -1.54,-6.94 -2.72,-9.3 -1.19,-2.38 -3.2,-4.39 -6.07,-6.1 -2.87,-1.69 -6.87,-2.75 -11.98,-3.16l-4.93 0c-2.25,0 -4.45,0.19 -6.61,0.56 -2.19,0.39 -4.41,0.99 -6.68,1.84 -4.41,1.54 -7.35,3.98 -8.89,7.35l-13.99 -8.61c3.89,-3.26 11.24,-4.91 22.06,-4.91l18.44 0c3.24,0 6.01,-0.26 8.26,-0.76 2.27,-0.52 4.28,-1.84 6.05,-4 0.89,-1.08 1.6,-2.48 2.12,-4.17 0.54,-1.69 0.8,-3.57 0.8,-5.64 0,-3.11 -0.78,-6.03 -2.31,-8.76 -1.54,-2.72 -3.63,-4.89 -6.31,-6.47 -2.66,-1.58 -5.49,-2.38 -8.48,-2.38 -12.85,0 -21.69,7.18 -26.51,21.56l-2.72 0 3.5 -25.34 3.65 0c0.52,1.69 0.93,2.75 1.28,3.18 0.35,0.41 1.04,0.63 2.1,0.63 1.94,0 3.96,-0.54 6.07,-1.58 1.15,-0.56 2.12,-1.02 2.92,-1.36 0.8,-0.37 1.67,-0.69 2.59,-1 1.47,-0.5 4.09,-0.76 7.85,-0.76 5.8,0 10.88,0.91 15.27,2.72 4.41,1.81 7.83,4.35 10.27,7.57 2.44,3.22 3.67,6.72 3.67,10.49 0,5.81 -1.88,10.06 -5.67,12.69 -3.78,2.64 -6.96,4.26 -9.54,4.91 1.52,0.28 3.72,1.04 6.62,2.2 2.9,1.19 5.84,3.46 8.84,6.79 1.56,1.69 2.75,3.65 3.57,5.86 0.82,2.23 1.23,4.76 1.23,7.59zm77.5 -1.19c0,0.63 -0.06,1.36 -0.19,2.2 -0.13,0.87 -0.33,1.93 -0.63,3.24 -0.5,2.25 -1.32,4.58 -2.46,7 -1.13,2.44 -2.49,4.26 -4.09,5.49l5.81 0.02c10.98,0 18.68,1.81 23.13,5.47l-15.09 8.89c-1.06,-3.31 -3.52,-5.57 -7.44,-6.87 -3.91,-1.28 -8.04,-1.93 -12.39,-1.93 -1.47,0.8 -3.85,1.78 -7.11,2.88 -3.29,1.1 -6.44,1.67 -9.47,1.67 -5.58,0 -10.55,-0.76 -14.9,-2.3 -4.35,-1.51 -7.89,-3.59 -10.61,-6.25 -2.72,-2.64 -4.78,-5.62 -6.16,-8.97 -0.63,-1.69 -1.13,-3.39 -1.47,-5.1 -0.32,-1.71 -0.5,-3.44 -0.5,-5.17l0 -49c0,-3.09 -0.78,-5.15 -2.31,-6.16 -1.54,-1.02 -4.24,-1.51 -8.06,-1.51 -0.26,0 -0.39,-0.39 -0.39,-1.19 0,-0.69 0.13,-1.06 0.39,-1.15l33.6 0c0.26,0 0.39,0.35 0.39,1.02 0,0.84 -0.17,1.28 -0.5,1.32 -3.72,0 -6.4,0.5 -8.07,1.51 -1.56,1.06 -2.33,3.11 -2.33,6.16l0 47.46c0,15.92 7.09,23.87 21.3,23.87 5.49,0 10.38,-1.26 14.68,-3.74 4.32,-2.51 7.16,-5.79 8.5,-9.9 0.63,-1.9 1.13,-3.78 1.47,-5.64 0.32,-1.86 0.5,-3.7 0.5,-5.54 0,-3.55 -0.58,-6.46 -1.75,-8.78 -1.15,-2.31 -2.31,-3.98 -3.5,-5.02 -1.19,-1.04 -2.12,-1.73 -2.79,-2.06l0 -30.66c0,-3.05 -0.78,-5.08 -2.33,-6.12 -1.58,-1.04 -4.3,-1.56 -8.2,-1.56 -0.32,0 -0.5,-0.43 -0.5,-1.32 0,-0.61 0.13,-0.93 0.39,-1.02l33.62 0c0.32,0 0.5,0.39 0.5,1.15 0,0.76 -0.17,1.15 -0.5,1.19 -3.76,0 -6.46,0.5 -8.09,1.49 -1.62,0.99 -2.44,3.05 -2.44,6.18l0 48.72zm91.15 1.93l0 -6.92c0,-3.13 -0.58,-5.17 -1.77,-6.09 -0.61,-0.46 -1.43,-0.85 -2.49,-1.13 -1.06,-0.3 -2.36,-0.45 -3.93,-0.45 -0.33,0 -0.5,-0.46 -0.5,-1.36 0,-0.59 0.13,-0.91 0.39,-0.97l29.06 0c0.26,0 0.39,0.39 0.39,1.15 0,0.71 -0.13,1.1 -0.39,1.19 -1.92,0 -3.52,0.26 -4.73,0.76 -0.98,0.39 -1.71,1.1 -2.19,2.16 -0.5,1.06 -0.74,2.68 -0.74,4.87l0 6.27c0,3.35 -0.65,6.62 -1.97,9.8 -1.3,3.2 -3.28,6.04 -5.92,8.52 -2.64,2.49 -6.08,4.52 -10.31,6.06 -4.24,1.54 -9.08,2.31 -14.49,2.31 -7.13,0 -13.08,-1.34 -17.86,-4 -4.76,-2.66 -8.28,-6.08 -10.53,-10.3 -2.27,-4.19 -3.39,-8.6 -3.39,-13.21l0 -44.37 -6.9 0c-1.49,-0.11 -3.11,-0.37 -4.93,-0.76 -1.8,-0.37 -4.02,-0.93 -6.68,-1.64 -4.93,-1.39 -8.76,-3.74 -11.46,-7.07l12.48 -10.77c0,1.77 1.15,3.96 3.46,6.57 2.29,2.62 5.21,4.89 8.76,6.83 3.55,1.94 6.92,2.92 10.07,2.92l8.04 0 0 46.72c0,6.81 1.21,12.02 3.61,15.66 2.4,3.63 5.06,5.99 7.91,7.09 2.88,1.1 5.32,1.64 7.29,1.64 2.29,0 4.91,-0.45 7.83,-1.34 2.94,-0.89 5.67,-2.92 8.15,-6.12 2.48,-3.2 3.74,-7.87 3.74,-14.01zm-2689.86 88.26l11.2 12.65 -40.46 32.8 48.61 23.57 -0.82 25.32 -1.26 0c-0.52,0 -0.84,-0.24 -0.95,-0.69l-0.39 -3.61c0,-0.97 -0.02,-1.67 -0.07,-2.07 -0.04,-0.39 -0.22,-1.26 -0.52,-2.55 -0.15,-1.02 -0.6,-1.93 -1.3,-2.72 -0.71,-0.82 -1.26,-1.34 -1.65,-1.6l-57.32 -27.61 40.48 -33.32c0.76,-0.97 1.19,-1.75 1.28,-2.36l-0.26 -0.76c-0.13,-0.35 -0.35,-0.65 -0.63,-0.95l-1.15 -1.38 -10.01 -10.14 7.48 -7.55c3.2,-3.28 6.21,-6.22 9,-8.8l1.45 0.89 -4.17 5.58c-0.61,0.8 -0.93,1.49 -1.02,2.1 0,0.45 0.39,1.1 1.15,1.97l1.32 1.25zm111.82 53.43c0,0.63 -0.06,1.36 -0.19,2.2 -0.13,0.87 -0.33,1.93 -0.63,3.24 -0.5,2.25 -1.32,4.58 -2.46,7 -1.13,2.44 -2.49,4.26 -4.09,5.49l5.81 0.02c10.98,0 18.68,1.81 23.13,5.47l-15.09 8.89c-1.06,-3.31 -3.52,-5.57 -7.44,-6.87 -3.91,-1.28 -8.04,-1.93 -12.39,-1.93 -1.47,0.8 -3.85,1.78 -7.11,2.88 -3.29,1.1 -6.44,1.67 -9.47,1.67 -5.58,0 -10.55,-0.76 -14.9,-2.3 -4.35,-1.51 -7.89,-3.59 -10.61,-6.25 -2.72,-2.64 -4.78,-5.62 -6.16,-8.97 -0.63,-1.69 -1.13,-3.39 -1.47,-5.1 -0.32,-1.71 -0.5,-3.44 -0.5,-5.17l0 -49c0,-3.09 -0.78,-5.15 -2.31,-6.16 -1.54,-1.02 -4.24,-1.51 -8.06,-1.51 -0.26,0 -0.39,-0.39 -0.39,-1.19 0,-0.69 0.13,-1.06 0.39,-1.15l33.6 0c0.26,0 0.39,0.35 0.39,1.02 0,0.84 -0.17,1.28 -0.5,1.32 -3.72,0 -6.4,0.5 -8.07,1.51 -1.56,1.06 -2.33,3.11 -2.33,6.16l0 47.46c0,15.92 7.09,23.87 21.3,23.87 5.49,0 10.38,-1.26 14.68,-3.74 4.32,-2.51 7.16,-5.79 8.5,-9.9 0.63,-1.9 1.13,-3.78 1.47,-5.64 0.32,-1.86 0.5,-3.7 0.5,-5.54 0,-3.55 -0.58,-6.46 -1.75,-8.78 -1.15,-2.31 -2.31,-3.98 -3.5,-5.02 -1.19,-1.04 -2.12,-1.73 -2.79,-2.06l0 -30.66c0,-3.05 -0.78,-5.08 -2.33,-6.12 -1.58,-1.04 -4.3,-1.56 -8.2,-1.56 -0.32,0 -0.5,-0.43 -0.5,-1.32 0,-0.61 0.13,-0.93 0.39,-1.02l33.62 0c0.32,0 0.5,0.39 0.5,1.15 0,0.76 -0.17,1.15 -0.5,1.19 -3.76,0 -6.46,0.5 -8.09,1.49 -1.62,0.99 -2.44,3.05 -2.44,6.18l0 48.72zm110.31 1.19c0,5.06 -1.77,9.64 -5.32,13.73 -3.54,4.07 -8.19,7.29 -13.97,9.62 -5.77,2.36 -11.76,3.53 -17.96,3.53 -4.48,0 -8.48,-0.39 -12,-1.17 -3.53,-0.78 -6.72,-1.97 -9.6,-3.52 -5.36,-2.92 -9.02,-5.8 -10.98,-8.63 -1.97,-2.83 -3.16,-4.95 -3.59,-6.4l14.27 -5.19c0.58,2.92 1.73,5.93 3.42,9.04 1.69,3.14 4.02,5.84 7.03,8.11 1.51,1.1 3.16,1.93 4.91,2.49 1.75,0.58 3.63,0.86 5.67,0.86 9.75,0 16.26,-2.46 19.5,-7.42 3.26,-4.93 4.89,-10.51 4.89,-16.71 -0.63,-3.85 -1.54,-6.94 -2.72,-9.3 -1.19,-2.38 -3.2,-4.39 -6.07,-6.1 -2.87,-1.69 -6.87,-2.75 -11.98,-3.16l-4.93 0c-2.25,0 -4.45,0.19 -6.61,0.56 -2.19,0.39 -4.41,0.99 -6.68,1.84 -4.41,1.54 -7.35,3.98 -8.89,7.35l-13.99 -8.61c3.89,-3.26 11.24,-4.91 22.06,-4.91l18.44 0c3.24,0 6.01,-0.26 8.26,-0.76 2.27,-0.52 4.28,-1.84 6.05,-4 0.89,-1.08 1.6,-2.48 2.12,-4.17 0.54,-1.69 0.8,-3.57 0.8,-5.64 0,-3.11 -0.78,-6.03 -2.31,-8.76 -1.54,-2.72 -3.63,-4.89 -6.31,-6.47 -2.66,-1.58 -5.49,-2.38 -8.48,-2.38 -12.85,0 -21.69,7.18 -26.51,21.56l-2.72 0 3.5 -25.34 3.65 0c0.52,1.69 0.93,2.75 1.28,3.18 0.35,0.41 1.04,0.63 2.1,0.63 1.94,0 3.96,-0.54 6.07,-1.58 1.15,-0.56 2.12,-1.02 2.92,-1.36 0.8,-0.37 1.67,-0.69 2.59,-1 1.47,-0.5 4.09,-0.76 7.85,-0.76 5.8,0 10.88,0.91 15.27,2.72 4.41,1.81 7.83,4.35 10.27,7.57 2.44,3.22 3.67,6.72 3.67,10.49 0,5.81 -1.88,10.06 -5.67,12.69 -3.78,2.64 -6.96,4.26 -9.54,4.91 1.52,0.28 3.72,1.04 6.62,2.2 2.9,1.19 5.84,3.46 8.84,6.79 1.56,1.69 2.75,3.65 3.57,5.86 0.82,2.23 1.23,4.76 1.23,7.59zm92.12 -1.19c0,0.63 -0.06,1.36 -0.19,2.2 -0.13,0.87 -0.33,1.93 -0.63,3.24 -0.5,2.25 -1.32,4.58 -2.46,7 -1.13,2.44 -2.49,4.26 -4.09,5.49l5.81 0.02c10.98,0 18.68,1.81 23.13,5.47l-15.09 8.89c-1.06,-3.31 -3.52,-5.57 -7.44,-6.87 -3.91,-1.28 -8.04,-1.93 -12.39,-1.93 -1.47,0.8 -3.85,1.78 -7.11,2.88 -3.29,1.1 -6.44,1.67 -9.47,1.67 -5.58,0 -10.55,-0.76 -14.9,-2.3 -4.35,-1.51 -7.89,-3.59 -10.61,-6.25 -2.72,-2.64 -4.78,-5.62 -6.16,-8.97 -0.63,-1.69 -1.13,-3.39 -1.47,-5.1 -0.32,-1.71 -0.5,-3.44 -0.5,-5.17l0 -49c0,-3.09 -0.78,-5.15 -2.31,-6.16 -1.54,-1.02 -4.24,-1.51 -8.06,-1.51 -0.26,0 -0.39,-0.39 -0.39,-1.19 0,-0.69 0.13,-1.06 0.39,-1.15l33.6 0c0.26,0 0.39,0.35 0.39,1.02 0,0.84 -0.17,1.28 -0.5,1.32 -3.72,0 -6.4,0.5 -8.07,1.51 -1.56,1.06 -2.33,3.11 -2.33,6.16l0 47.46c0,15.92 7.09,23.87 21.3,23.87 5.49,0 10.38,-1.26 14.68,-3.74 4.32,-2.51 7.16,-5.79 8.5,-9.9 0.63,-1.9 1.13,-3.78 1.47,-5.64 0.32,-1.86 0.5,-3.7 0.5,-5.54 0,-3.55 -0.58,-6.46 -1.75,-8.78 -1.15,-2.31 -2.31,-3.98 -3.5,-5.02 -1.19,-1.04 -2.12,-1.73 -2.79,-2.06l0 -30.66c0,-3.05 -0.78,-5.08 -2.33,-6.12 -1.58,-1.04 -4.3,-1.56 -8.2,-1.56 -0.32,0 -0.5,-0.43 -0.5,-1.32 0,-0.61 0.13,-0.93 0.39,-1.02l33.62 0c0.32,0 0.5,0.39 0.5,1.15 0,0.76 -0.17,1.15 -0.5,1.19 -3.76,0 -6.46,0.5 -8.09,1.49 -1.62,0.99 -2.44,3.05 -2.44,6.18l0 48.72zm104.73 -48.59l0 48.74c0,4.65 -1.12,9.13 -3.35,13.41 -2.25,4.3 -5.73,7.79 -10.44,10.49 -4.73,2.68 -10.68,4.02 -17.86,4.02 -7.13,0 -13.1,-1.3 -17.88,-3.89 -4.8,-2.62 -8.3,-6.06 -10.55,-10.31 -2.23,-4.28 -3.35,-8.71 -3.35,-13.34l0 -49.24c0,-3.09 -0.78,-5.15 -2.31,-6.16 -1.54,-1.02 -4.24,-1.51 -8.06,-1.51 -0.26,0 -0.39,-0.39 -0.39,-1.19 0,-0.69 0.13,-1.06 0.39,-1.15l33.6 0c0.26,0 0.39,0.35 0.39,1.02 0,0.84 -0.17,1.28 -0.5,1.32 -3.72,0 -6.4,0.5 -8.07,1.51 -1.56,1.06 -2.33,3.11 -2.33,6.16l0 47.81c0,9.78 2.1,16.2 6.27,19.29 4.17,3.09 8.5,4.63 12.93,4.63 2.19,0 4.65,-0.47 7.37,-1.41 2.72,-0.93 5.32,-3.18 7.76,-6.77 2.44,-3.61 3.68,-8.84 3.68,-15.74l0 -47.81c0,-3.05 -0.78,-5.08 -2.33,-6.12 -1.56,-1.04 -4.28,-1.56 -8.17,-1.56l-0.11 -2.33 33.56 0c0.39,0 0.58,0.39 0.58,1.15 0,0.71 -0.19,1.1 -0.58,1.19 -3.59,0 -6.2,0.52 -7.81,1.56 -1.62,1.04 -2.42,3.11 -2.42,6.25zm92.38 53.8c0,2.79 -0.73,5.56 -2.22,8.32 -1.47,2.77 -3.5,5.25 -6.1,7.48 -2.59,2.2 -5.69,4 -9.23,5.39 -3.55,1.36 -7.13,2.05 -10.77,2.05 -8.69,0 -15.55,-1.49 -20.59,-4.45 -5.02,-2.98 -8.43,-5.99 -10.22,-9.06 -1.8,-3.05 -2.88,-5.3 -3.27,-6.72l13.3 -5.32c1.19,5.28 3.29,10.07 6.29,14.4 2.98,4.32 7.33,6.48 13,6.48 4.78,0 8.87,-1.28 12.26,-3.8 3.39,-2.53 5.1,-5.97 5.1,-10.31 0,-5.08 -1.77,-9.17 -5.3,-12.26 -3.52,-3.11 -9.02,-6.68 -16.5,-10.75 -7.48,-4.04 -13.04,-7.83 -16.69,-11.33 -3.65,-3.5 -5.49,-8.15 -5.49,-13.93 0,-3.59 0.95,-7.03 2.85,-10.27 1.9,-3.24 4.65,-5.86 8.26,-7.83 3.61,-1.97 7.76,-2.94 12.46,-2.94 1.1,0 2.14,0 3.11,0.02 0.98,0.02 1.97,0.21 3.03,0.54 1.54,0.39 3.72,1.06 6.55,2.03 2.85,0.97 4.93,1.45 6.25,1.45 1.19,0 2.14,-0.43 2.87,-1.3 0.76,-0.86 1.19,-1.77 1.3,-2.74l0.91 0 1.58 0 2.96 27.5 -2.98 0 -2.1 -5.28c-0.58,-1.47 -1.19,-2.79 -1.8,-3.96 -0.63,-1.17 -1.45,-2.51 -2.51,-4.04 -1.81,-2.62 -4.24,-4.93 -7.24,-6.94 -3.03,-2.01 -6.61,-3.01 -10.74,-3.01 -3.33,0 -6.57,1.23 -9.69,3.68 -3.13,2.44 -4.69,5.58 -4.69,9.39 0,3.91 1.71,7.18 5.11,9.75 3.39,2.57 9.06,5.99 16.97,10.3 7.91,4.28 13.9,8.39 17.93,12.35 4.04,3.96 6.05,8.99 6.05,15.11zm93.53 -5.21c0,0.63 -0.06,1.36 -0.19,2.2 -0.13,0.87 -0.33,1.93 -0.63,3.24 -0.5,2.25 -1.32,4.58 -2.46,7 -1.13,2.44 -2.49,4.26 -4.09,5.49l5.81 0.02c10.98,0 18.68,1.81 23.13,5.47l-15.09 8.89c-1.06,-3.31 -3.52,-5.57 -7.44,-6.87 -3.91,-1.28 -8.04,-1.93 -12.39,-1.93 -1.47,0.8 -3.85,1.78 -7.11,2.88 -3.29,1.1 -6.44,1.67 -9.47,1.67 -5.58,0 -10.55,-0.76 -14.9,-2.3 -4.35,-1.51 -7.89,-3.59 -10.61,-6.25 -2.72,-2.64 -4.78,-5.62 -6.16,-8.97 -0.63,-1.69 -1.13,-3.39 -1.47,-5.1 -0.32,-1.71 -0.5,-3.44 -0.5,-5.17l0 -49c0,-3.09 -0.78,-5.15 -2.31,-6.16 -1.54,-1.02 -4.24,-1.51 -8.06,-1.51 -0.26,0 -0.39,-0.39 -0.39,-1.19 0,-0.69 0.13,-1.06 0.39,-1.15l33.6 0c0.26,0 0.39,0.35 0.39,1.02 0,0.84 -0.17,1.28 -0.5,1.32 -3.72,0 -6.4,0.5 -8.07,1.51 -1.56,1.06 -2.33,3.11 -2.33,6.16l0 47.46c0,15.92 7.09,23.87 21.3,23.87 5.49,0 10.38,-1.26 14.68,-3.74 4.32,-2.51 7.16,-5.79 8.5,-9.9 0.63,-1.9 1.13,-3.78 1.47,-5.64 0.32,-1.86 0.5,-3.7 0.5,-5.54 0,-3.55 -0.58,-6.46 -1.75,-8.78 -1.15,-2.31 -2.31,-3.98 -3.5,-5.02 -1.19,-1.04 -2.12,-1.73 -2.79,-2.06l0 -30.66c0,-3.05 -0.78,-5.08 -2.33,-6.12 -1.58,-1.04 -4.3,-1.56 -8.2,-1.56 -0.32,0 -0.5,-0.43 -0.5,-1.32 0,-0.61 0.13,-0.93 0.39,-1.02l33.62 0c0.32,0 0.5,0.39 0.5,1.15 0,0.76 -0.17,1.15 -0.5,1.19 -3.76,0 -6.46,0.5 -8.09,1.49 -1.62,0.99 -2.44,3.05 -2.44,6.18l0 48.72zm105.77 1.93l0 -6.92c0,-3.13 -0.58,-5.17 -1.77,-6.09 -0.61,-0.46 -1.43,-0.85 -2.49,-1.13 -1.06,-0.3 -2.36,-0.45 -3.93,-0.45 -0.33,0 -0.5,-0.46 -0.5,-1.36 0,-0.59 0.13,-0.91 0.39,-0.97l29.06 0c0.26,0 0.39,0.39 0.39,1.15 0,0.71 -0.13,1.1 -0.39,1.19 -1.92,0 -3.52,0.26 -4.73,0.76 -0.98,0.39 -1.71,1.1 -2.19,2.16 -0.5,1.06 -0.74,2.68 -0.74,4.87l0 6.27c0,3.35 -0.65,6.62 -1.97,9.8 -1.3,3.2 -3.28,6.04 -5.92,8.52 -2.64,2.49 -6.08,4.52 -10.31,6.06 -4.24,1.54 -9.08,2.31 -14.49,2.31 -7.13,0 -13.08,-1.34 -17.86,-4 -4.76,-2.66 -8.28,-6.08 -10.53,-10.3 -2.27,-4.19 -3.39,-8.6 -3.39,-13.21l0 -44.37 -6.9 0c-1.49,-0.11 -3.11,-0.37 -4.93,-0.76 -1.8,-0.37 -4.02,-0.93 -6.68,-1.64 -4.93,-1.39 -8.76,-3.74 -11.46,-7.07l12.48 -10.77c0,1.77 1.15,3.96 3.46,6.57 2.29,2.62 5.21,4.89 8.76,6.83 3.55,1.94 6.92,2.92 10.07,2.92l8.04 0 0 46.72c0,6.81 1.21,12.02 3.61,15.66 2.4,3.63 5.06,5.99 7.91,7.09 2.88,1.1 5.32,1.64 7.29,1.64 2.29,0 4.91,-0.45 7.83,-1.34 2.94,-0.89 5.67,-2.92 8.15,-6.12 2.48,-3.2 3.74,-7.87 3.74,-14.01zm108.31 -14.06l0 6.85c0,2.23 0.26,3.91 0.8,5 0.52,1.1 1.43,1.9 2.7,2.42 0.58,0.17 1.34,0.32 2.25,0.5 0.91,0.17 1.84,0.26 2.81,0.26 0.26,0 0.39,0.43 0.39,1.32 0,0.87 -0.13,1.32 -0.39,1.41l-29.45 0c-0.26,0 -0.39,-0.39 -0.39,-1.15 0,-0.97 0.13,-1.49 0.39,-1.58 2.96,0 5.06,-0.56 6.29,-1.71 1.26,-1.15 1.88,-3.29 1.88,-6.46l0 -5.58c0,-5.28 -0.76,-9.52 -2.27,-12.71 -1.54,-3.22 -3.35,-5.54 -5.45,-6.96 -2.12,-1.45 -3.93,-2.35 -5.45,-2.72 -0.3,-0.09 -1.1,-0.26 -2.38,-0.52 -1.3,-0.24 -2.38,-0.43 -3.26,-0.56 -5.04,0 -9.49,1.08 -13.36,3.24 -3.89,2.17 -5.84,4.85 -5.84,8.04l0 39.03c0,3 1.02,5.19 3.05,6.55 2.01,1.36 4.48,2.03 7.35,2.03 0.32,0 0.5,0.41 0.5,1.25 0,0.72 -0.13,1.08 -0.39,1.08l-33.6 0c-0.26,0 -0.39,-0.39 -0.39,-1.19 0,-0.69 0.13,-1.06 0.39,-1.15 3.63,0 6.27,-0.63 7.91,-1.9 1.64,-1.28 2.46,-3.5 2.46,-6.68l0 -63.79c0,-3.18 -0.69,-5.41 -2.07,-6.68 -1.36,-1.28 -3.81,-1.9 -7.27,-1.9 -0.35,0 -0.52,-0.39 -0.52,-1.19 0,-0.74 0.17,-1.1 0.5,-1.15l31.61 0c0.3,0 0.45,0.39 0.45,1.15 0,0.71 -0.19,1.1 -0.56,1.19 -2.83,0 -5.1,0.67 -6.83,2.03 -1.73,1.36 -2.59,3.55 -2.59,6.55l0 15.16c0,0.09 0.02,0.15 0.09,0.22 0.07,0.06 0.13,0.13 0.17,0.17l2.79 -1.99c1.82,-1.26 4.07,-2.42 6.75,-3.46 2.68,-1.04 5.88,-1.56 9.64,-1.56 5.58,0 10.36,0.72 14.31,2.12 3.98,1.43 7.2,3.35 9.69,5.81 2.48,2.44 4.32,5.32 5.51,8.61 0.58,1.67 1.04,3.33 1.34,5.02 0.28,1.69 0.43,3.55 0.43,5.58zm176.45 12.13c0,0.63 -0.06,1.36 -0.19,2.2 -0.13,0.87 -0.33,1.93 -0.63,3.24 -0.5,2.25 -1.32,4.58 -2.46,7 -1.13,2.44 -2.49,4.26 -4.09,5.49l5.81 0.02c10.98,0 18.68,1.81 23.13,5.47l-15.09 8.89c-1.06,-3.31 -3.52,-5.57 -7.44,-6.87 -3.91,-1.28 -8.04,-1.93 -12.39,-1.93 -1.47,0.8 -3.85,1.78 -7.11,2.88 -3.29,1.1 -6.44,1.67 -9.47,1.67 -5.58,0 -10.55,-0.76 -14.9,-2.3 -4.35,-1.51 -7.89,-3.59 -10.61,-6.25 -2.72,-2.64 -4.78,-5.62 -6.16,-8.97 -0.63,-1.69 -1.13,-3.39 -1.47,-5.1 -0.32,-1.71 -0.5,-3.44 -0.5,-5.17l0 -49c0,-3.09 -0.78,-5.15 -2.31,-6.16 -1.54,-1.02 -4.24,-1.51 -8.06,-1.51 -0.26,0 -0.39,-0.39 -0.39,-1.19 0,-0.69 0.13,-1.06 0.39,-1.15l33.6 0c0.26,0 0.39,0.35 0.39,1.02 0,0.84 -0.17,1.28 -0.5,1.32 -3.72,0 -6.4,0.5 -8.07,1.51 -1.56,1.06 -2.33,3.11 -2.33,6.16l0 47.46c0,15.92 7.09,23.87 21.3,23.87 5.49,0 10.38,-1.26 14.68,-3.74 4.32,-2.51 7.16,-5.79 8.5,-9.9 0.63,-1.9 1.13,-3.78 1.47,-5.64 0.32,-1.86 0.5,-3.7 0.5,-5.54 0,-3.55 -0.58,-6.46 -1.75,-8.78 -1.15,-2.31 -2.31,-3.98 -3.5,-5.02 -1.19,-1.04 -2.12,-1.73 -2.79,-2.06l0 -30.66c0,-3.05 -0.78,-5.08 -2.33,-6.12 -1.58,-1.04 -4.3,-1.56 -8.2,-1.56 -0.32,0 -0.5,-0.43 -0.5,-1.32 0,-0.61 0.13,-0.93 0.39,-1.02l33.62 0c0.32,0 0.5,0.39 0.5,1.15 0,0.76 -0.17,1.15 -0.5,1.19 -3.76,0 -6.46,0.5 -8.09,1.49 -1.62,0.99 -2.44,3.05 -2.44,6.18l0 48.72z"/>
  <path class="fil0" d="M4430.59 7999.24c0,2.88 0.56,5.78 1.7,8.65 1.15,2.87 2.79,5.23 4.93,7.07 2.16,1.86 4.63,2.77 7.41,2.77 1.52,0 2.94,-0.39 4.3,-1.21 0.71,-0.41 1.32,-0.78 1.8,-1.06 0.5,-0.3 0.87,-0.54 1.15,-0.73 0.26,-0.2 0.5,-0.28 0.67,-0.28 0.24,0 0.5,0.2 0.76,0.58 0.24,0.41 0.41,0.91 0.5,1.49 -3,3.61 -5.86,6.88 -8.56,9.8l-5.56 5.6c-1.36,-0.35 -3.4,-1.21 -6.1,-2.57 -2.7,-1.38 -5.45,-3.85 -8.24,-7.39 -1.34,-1.84 -2.35,-3.89 -3.07,-6.2 -0.69,-2.29 -1.04,-4.89 -1.04,-7.76 0,-5.9 1.26,-11.18 3.74,-15.89 2.49,-4.69 6.03,-8.54 10.64,-11.54 2.4,-1.52 4.89,-2.72 7.44,-3.61 2.55,-0.89 5.19,-1.34 7.89,-1.34l3.35 0c7.68,0 14.06,1.84 19.09,5.54 5.04,3.7 8.76,8.48 11.11,14.36 2.35,5.86 3.54,11.83 3.54,17.86 0,8.2 -2.07,15.22 -6.2,21.08 -3.89,5.62 -8.43,10.03 -13.69,13.25 -2.49,1.47 -4.87,2.75 -7.11,3.78 -2.27,1.06 -4.39,1.93 -6.36,2.59 -1.81,0.56 -3.37,1 -4.67,1.34 -1.28,0.35 -2.49,0.63 -3.63,0.89l4.89 -0.39c0.93,0 2.36,-0.06 4.3,-0.19 1.95,-0.13 3.24,-0.2 3.91,-0.2 3.48,0 6.66,0.17 9.58,0.52 1.26,0 2.27,0.04 3.01,0.15 0.73,0.11 2.7,0.48 5.88,1.1 3.2,0.65 6.29,1.58 9.3,2.85 3.16,1.17 5.88,2.61 8.17,4.35l-15.55 6.96c-4.67,-4.65 -9.32,-7.74 -13.93,-9.3 -4.6,-1.57 -9.6,-2.35 -15,-2.35l-4.82 0 -5.06 0c-2.48,0 -4.19,0.02 -5.1,0.09 -0.91,0.06 -2.07,0.19 -3.52,0.39 -1.43,0.19 -3.01,0.41 -4.71,0.67 -1.71,0.26 -3.61,0.58 -5.73,1.02l-6.33 1.08 0 -20.63 13.23 0 0 13.1 2.85 0c7.81,0 14.98,-1.75 21.52,-5.28 6.51,-3.52 11.78,-8.43 15.8,-14.72 4,-6.27 6.01,-13.32 6.01,-21.1 0,-2.44 -0.13,-4.76 -0.39,-6.92 -0.24,-2.16 -0.67,-4.33 -1.25,-6.53 -1.1,-4.19 -2.72,-7.87 -4.91,-11.05 -2.16,-3.18 -4.93,-5.65 -8.28,-7.4 -3.37,-1.75 -7.16,-2.64 -11.37,-2.64 -2.92,0.26 -5.71,1.28 -8.41,3.07 -2.7,1.82 -4.91,4.15 -6.61,7.03 -1.71,2.88 -2.81,5.97 -3.26,9.28zm149.98 36.8l0 14.77c0,3.13 1,5.43 2.98,6.83 1.97,1.43 4.45,2.14 7.39,2.14 0.26,0 0.39,0.45 0.39,1.38 0,0.59 -0.09,0.91 -0.26,0.95l-33.62 0c-0.32,0 -0.5,-0.39 -0.5,-1.19 0,-0.74 0.17,-1.1 0.5,-1.15 3.57,0 6.19,-0.63 7.87,-1.9 1.69,-1.28 2.53,-3.48 2.53,-6.66l0 -14.85 -4.74 -0.06 -14.03 0c-7.07,0 -13.02,-1.21 -17.86,-3.66 -4.84,-2.42 -8.39,-5.67 -10.61,-9.69 -2.23,-4.02 -3.35,-8.39 -3.35,-13.15l0 -6.27c0,-3.52 0.6,-6.87 1.79,-10.07 1.21,-3.2 3.11,-6.12 5.73,-8.8 2.61,-2.66 5.94,-4.76 9.99,-6.27 4.02,-1.54 8.74,-2.29 14.14,-2.29 5.49,0 10.25,0.78 14.27,2.31 4.04,1.54 7.33,3.59 9.92,6.17 2.44,2.46 4.3,5.34 5.56,8.69 1.28,3.33 1.9,6.72 1.9,10.19l0 28.56 10.53 0c11.07,0 18.77,1.81 23.07,5.45l-14.57 7.52c-1.64,-2.53 -3.48,-4.43 -5.47,-5.73 -0.89,-0.61 -1.82,-1.1 -2.79,-1.56 -0.99,-0.43 -1.93,-0.76 -2.81,-0.98 -0.89,-0.22 -1.77,-0.37 -2.68,-0.5 -0.89,-0.13 -1.69,-0.19 -2.42,-0.19l-2.85 0zm-12.71 -4.02l0 -27.63c0,-9.92 -2.07,-16.39 -6.23,-19.44 -4.13,-3.05 -8.43,-4.56 -12.91,-4.56 -2.09,0 -4.54,0.48 -7.28,1.43 -2.77,0.95 -5.36,3.22 -7.81,6.83 -2.44,3.59 -3.65,8.87 -3.65,15.81l0 3.37c0,6.81 1.19,12.02 3.59,15.65 2.4,3.61 5.02,5.94 7.8,6.98 2.81,1.04 5.26,1.56 7.35,1.56l11.81 0 7.33 0zm131.17 3.2c0,0.63 -0.06,1.36 -0.19,2.2 -0.13,0.87 -0.33,1.93 -0.63,3.24 -0.5,2.25 -1.32,4.58 -2.46,7 -1.13,2.44 -2.49,4.26 -4.09,5.49l5.81 0.02c10.98,0 18.68,1.81 23.13,5.47l-15.09 8.89c-1.06,-3.31 -3.52,-5.57 -7.44,-6.87 -3.91,-1.28 -8.04,-1.93 -12.39,-1.93 -1.47,0.8 -3.85,1.78 -7.11,2.88 -3.29,1.1 -6.44,1.67 -9.47,1.67 -5.58,0 -10.55,-0.76 -14.9,-2.3 -4.35,-1.51 -7.89,-3.59 -10.61,-6.25 -2.72,-2.64 -4.78,-5.62 -6.16,-8.97 -0.63,-1.69 -1.13,-3.39 -1.47,-5.1 -0.32,-1.71 -0.5,-3.44 -0.5,-5.17l0 -49c0,-3.09 -0.78,-5.15 -2.31,-6.16 -1.54,-1.02 -4.24,-1.51 -8.06,-1.51 -0.26,0 -0.39,-0.39 -0.39,-1.19 0,-0.69 0.13,-1.06 0.39,-1.15l33.6 0c0.26,0 0.39,0.35 0.39,1.02 0,0.84 -0.17,1.28 -0.5,1.32 -3.72,0 -6.4,0.5 -8.07,1.51 -1.56,1.06 -2.33,3.11 -2.33,6.16l0 47.46c0,15.92 7.09,23.87 21.3,23.87 5.49,0 10.38,-1.26 14.68,-3.74 4.32,-2.51 7.16,-5.79 8.5,-9.9 0.63,-1.9 1.13,-3.78 1.47,-5.64 0.32,-1.86 0.5,-3.7 0.5,-5.54 0,-3.55 -0.58,-6.46 -1.75,-8.78 -1.15,-2.31 -2.31,-3.98 -3.5,-5.02 -1.19,-1.04 -2.12,-1.73 -2.79,-2.06l0 -30.66c0,-3.05 -0.78,-5.08 -2.33,-6.12 -1.58,-1.04 -4.3,-1.56 -8.2,-1.56 -0.32,0 -0.5,-0.43 -0.5,-1.32 0,-0.61 0.13,-0.93 0.39,-1.02l33.62 0c0.32,0 0.5,0.39 0.5,1.15 0,0.76 -0.17,1.15 -0.5,1.19 -3.76,0 -6.46,0.5 -8.09,1.49 -1.62,0.99 -2.44,3.05 -2.44,6.18l0 48.72zm110.31 1.19c0,5.06 -1.77,9.64 -5.32,13.73 -3.54,4.07 -8.19,7.29 -13.97,9.62 -5.77,2.36 -11.76,3.53 -17.96,3.53 -4.48,0 -8.48,-0.39 -12,-1.17 -3.53,-0.78 -6.72,-1.97 -9.6,-3.52 -5.36,-2.92 -9.02,-5.8 -10.98,-8.63 -1.97,-2.83 -3.16,-4.95 -3.59,-6.4l14.27 -5.19c0.58,2.92 1.73,5.93 3.42,9.04 1.69,3.14 4.02,5.84 7.03,8.11 1.51,1.1 3.16,1.93 4.91,2.49 1.75,0.58 3.63,0.86 5.67,0.86 9.75,0 16.26,-2.46 19.5,-7.42 3.26,-4.93 4.89,-10.51 4.89,-16.71 -0.63,-3.85 -1.54,-6.94 -2.72,-9.3 -1.19,-2.38 -3.2,-4.39 -6.07,-6.1 -2.87,-1.69 -6.87,-2.75 -11.98,-3.16l-4.93 0c-2.25,0 -4.45,0.19 -6.61,0.56 -2.19,0.39 -4.41,0.99 -6.68,1.84 -4.41,1.54 -7.35,3.98 -8.89,7.35l-13.99 -8.61c3.89,-3.26 11.24,-4.91 22.06,-4.91l18.44 0c3.24,0 6.01,-0.26 8.26,-0.76 2.27,-0.52 4.28,-1.84 6.05,-4 0.89,-1.08 1.6,-2.48 2.12,-4.17 0.54,-1.69 0.8,-3.57 0.8,-5.64 0,-3.11 -0.78,-6.03 -2.31,-8.76 -1.54,-2.72 -3.63,-4.89 -6.31,-6.47 -2.66,-1.58 -5.49,-2.38 -8.48,-2.38 -12.85,0 -21.69,7.18 -26.51,21.56l-2.72 0 3.5 -25.34 3.65 0c0.52,1.69 0.93,2.75 1.28,3.18 0.35,0.41 1.04,0.63 2.1,0.63 1.94,0 3.96,-0.54 6.07,-1.58 1.15,-0.56 2.12,-1.02 2.92,-1.36 0.8,-0.37 1.67,-0.69 2.59,-1 1.47,-0.5 4.09,-0.76 7.85,-0.76 5.8,0 10.88,0.91 15.27,2.72 4.41,1.81 7.83,4.35 10.27,7.57 2.44,3.22 3.67,6.72 3.67,10.49 0,5.81 -1.88,10.06 -5.67,12.69 -3.78,2.64 -6.96,4.26 -9.54,4.91 1.52,0.28 3.72,1.04 6.62,2.2 2.9,1.19 5.84,3.46 8.84,6.79 1.56,1.69 2.75,3.65 3.57,5.86 0.82,2.23 1.23,4.76 1.23,7.59zm91.99 -13.32l0 6.85c0,2.23 0.26,3.91 0.8,5 0.52,1.1 1.43,1.9 2.7,2.42 0.58,0.17 1.34,0.32 2.25,0.5 0.91,0.17 1.84,0.26 2.81,0.26 0.26,0 0.39,0.43 0.39,1.32 0,0.87 -0.13,1.32 -0.39,1.41l-29.45 0c-0.26,0 -0.39,-0.39 -0.39,-1.15 0,-0.97 0.13,-1.49 0.39,-1.58 2.96,0 5.06,-0.56 6.29,-1.71 1.26,-1.15 1.88,-3.29 1.88,-6.46l0 -5.58c0,-5.28 -0.76,-9.52 -2.27,-12.71 -1.54,-3.22 -3.35,-5.54 -5.45,-6.96 -2.12,-1.45 -3.93,-2.35 -5.45,-2.72 -0.3,-0.09 -1.1,-0.26 -2.38,-0.52 -1.3,-0.24 -2.38,-0.43 -3.26,-0.56 -5.04,0 -9.49,1.08 -13.36,3.24 -3.89,2.17 -5.84,4.85 -5.84,8.04l0 39.03c0,3 1.02,5.19 3.05,6.55 2.01,1.36 4.48,2.03 7.35,2.03 0.32,0 0.5,0.41 0.5,1.25 0,0.72 -0.13,1.08 -0.39,1.08l-33.6 0c-0.26,0 -0.39,-0.39 -0.39,-1.19 0,-0.69 0.13,-1.06 0.39,-1.15 3.63,0 6.27,-0.63 7.91,-1.9 1.64,-1.28 2.46,-3.5 2.46,-6.68l0 -63.79c0,-3.18 -0.69,-5.41 -2.07,-6.68 -1.36,-1.28 -3.81,-1.9 -7.27,-1.9 -0.35,0 -0.52,-0.39 -0.52,-1.19 0,-0.74 0.17,-1.1 0.5,-1.15l31.61 0c0.3,0 0.45,0.39 0.45,1.15 0,0.71 -0.19,1.1 -0.56,1.19 -2.83,0 -5.1,0.67 -6.83,2.03 -1.73,1.36 -2.59,3.55 -2.59,6.55l0 15.16c0,0.09 0.02,0.15 0.09,0.22 0.07,0.06 0.13,0.13 0.17,0.17l2.79 -1.99c1.82,-1.26 4.07,-2.42 6.75,-3.46 2.68,-1.04 5.88,-1.56 9.64,-1.56 5.58,0 10.36,0.72 14.31,2.12 3.98,1.43 7.2,3.35 9.69,5.81 2.48,2.44 4.32,5.32 5.51,8.61 0.58,1.67 1.04,3.33 1.34,5.02 0.28,1.69 0.43,3.55 0.43,5.58zm96.28 14.06l0 -6.92c0,-3.13 -0.58,-5.17 -1.77,-6.09 -0.61,-0.46 -1.43,-0.85 -2.49,-1.13 -1.06,-0.3 -2.36,-0.45 -3.93,-0.45 -0.33,0 -0.5,-0.46 -0.5,-1.36 0,-0.59 0.13,-0.91 0.39,-0.97l29.06 0c0.26,0 0.39,0.39 0.39,1.15 0,0.71 -0.13,1.1 -0.39,1.19 -1.92,0 -3.52,0.26 -4.73,0.76 -0.98,0.39 -1.71,1.1 -2.19,2.16 -0.5,1.06 -0.74,2.68 -0.74,4.87l0 6.27c0,3.35 -0.65,6.62 -1.97,9.8 -1.3,3.2 -3.28,6.04 -5.92,8.52 -2.64,2.49 -6.08,4.52 -10.31,6.06 -4.24,1.54 -9.08,2.31 -14.49,2.31 -7.13,0 -13.08,-1.34 -17.86,-4 -4.76,-2.66 -8.28,-6.08 -10.53,-10.3 -2.27,-4.19 -3.39,-8.6 -3.39,-13.21l0 -44.37 -6.9 0c-1.49,-0.11 -3.11,-0.37 -4.93,-0.76 -1.8,-0.37 -4.02,-0.93 -6.68,-1.64 -4.93,-1.39 -8.76,-3.74 -11.46,-7.07l12.48 -10.77c0,1.77 1.15,3.96 3.46,6.57 2.29,2.62 5.21,4.89 8.76,6.83 3.55,1.94 6.92,2.92 10.07,2.92l8.04 0 0 46.72c0,6.81 1.21,12.02 3.61,15.66 2.4,3.63 5.06,5.99 7.91,7.09 2.88,1.1 5.32,1.64 7.29,1.64 2.29,0 4.91,-0.45 7.83,-1.34 2.94,-0.89 5.67,-2.92 8.15,-6.12 2.48,-3.2 3.74,-7.87 3.74,-14.01zm159.32 -55.35l11.2 12.65 -40.46 32.8 48.61 23.57 -0.82 25.32 -1.26 0c-0.52,0 -0.84,-0.24 -0.95,-0.69l-0.39 -3.61c0,-0.97 -0.02,-1.67 -0.07,-2.07 -0.04,-0.39 -0.22,-1.26 -0.52,-2.55 -0.15,-1.02 -0.6,-1.93 -1.3,-2.72 -0.71,-0.82 -1.26,-1.34 -1.65,-1.6l-57.32 -27.61 40.48 -33.32c0.76,-0.97 1.19,-1.75 1.28,-2.36l-0.26 -0.76c-0.13,-0.35 -0.35,-0.65 -0.63,-0.95l-1.15 -1.38 -10.01 -10.14 7.48 -7.55c3.2,-3.28 6.21,-6.22 9,-8.8l1.45 0.89 -4.17 5.58c-0.61,0.8 -0.93,1.49 -1.02,2.1 0,0.45 0.39,1.1 1.15,1.97l1.32 1.25zm111.82 53.43c0,0.63 -0.06,1.36 -0.19,2.2 -0.13,0.87 -0.33,1.93 -0.63,3.24 -0.5,2.25 -1.32,4.58 -2.46,7 -1.13,2.44 -2.49,4.26 -4.09,5.49l5.81 0.02c10.98,0 18.68,1.81 23.13,5.47l-15.09 8.89c-1.06,-3.31 -3.52,-5.57 -7.44,-6.87 -3.91,-1.28 -8.04,-1.93 -12.39,-1.93 -1.47,0.8 -3.85,1.78 -7.11,2.88 -3.29,1.1 -6.44,1.67 -9.47,1.67 -5.58,0 -10.55,-0.76 -14.9,-2.3 -4.35,-1.51 -7.89,-3.59 -10.61,-6.25 -2.72,-2.64 -4.78,-5.62 -6.16,-8.97 -0.63,-1.69 -1.13,-3.39 -1.47,-5.1 -0.32,-1.71 -0.5,-3.44 -0.5,-5.17l0 -49c0,-3.09 -0.78,-5.15 -2.31,-6.16 -1.54,-1.02 -4.24,-1.51 -8.06,-1.51 -0.26,0 -0.39,-0.39 -0.39,-1.19 0,-0.69 0.13,-1.06 0.39,-1.15l33.6 0c0.26,0 0.39,0.35 0.39,1.02 0,0.84 -0.17,1.28 -0.5,1.32 -3.72,0 -6.4,0.5 -8.07,1.51 -1.56,1.06 -2.33,3.11 -2.33,6.16l0 47.46c0,15.92 7.09,23.87 21.3,23.87 5.49,0 10.38,-1.26 14.68,-3.74 4.32,-2.51 7.16,-5.79 8.5,-9.9 0.63,-1.9 1.13,-3.78 1.47,-5.64 0.32,-1.86 0.5,-3.7 0.5,-5.54 0,-3.55 -0.58,-6.46 -1.75,-8.78 -1.15,-2.31 -2.31,-3.98 -3.5,-5.02 -1.19,-1.04 -2.12,-1.73 -2.79,-2.06l0 -30.66c0,-3.05 -0.78,-5.08 -2.33,-6.12 -1.58,-1.04 -4.3,-1.56 -8.2,-1.56 -0.32,0 -0.5,-0.43 -0.5,-1.32 0,-0.61 0.13,-0.93 0.39,-1.02l33.62 0c0.32,0 0.5,0.39 0.5,1.15 0,0.76 -0.17,1.15 -0.5,1.19 -3.76,0 -6.46,0.5 -8.09,1.49 -1.62,0.99 -2.44,3.05 -2.44,6.18l0 48.72zm41.29 0.52l0 -48.35c0,-3.18 -0.69,-5.39 -2.07,-6.66 -1.36,-1.28 -3.81,-1.9 -7.27,-1.9 -0.35,0 -0.52,-0.39 -0.52,-1.19 0,-0.74 0.17,-1.1 0.5,-1.15l31.61 0c0.3,0 0.45,0.39 0.45,1.15 0,0.71 -0.19,1.1 -0.56,1.19 -2.83,0 -5.1,0.67 -6.83,2.03 -1.73,1.34 -2.59,3.52 -2.59,6.53l0 46.92c0,9.78 2.1,16.2 6.27,19.29 4.17,3.09 8.5,4.63 12.93,4.63 2.19,0 4.65,-0.47 7.37,-1.41 2.72,-0.93 5.32,-3.18 7.76,-6.77 2.44,-3.61 3.68,-8.84 3.68,-15.74l0 -46.92c0,-3.09 -0.84,-5.28 -2.53,-6.59 -1.7,-1.32 -4.37,-1.97 -8,-1.97l-0.13 -2.33 32.8 0c11.29,0 19.11,1.81 23.5,5.45l-14.57 9.1c-1.38,-2.96 -3.42,-5.28 -6.07,-6.92 -2.66,-1.67 -5.1,-2.77 -7.35,-3.35 -2.23,-0.56 -3.87,-0.91 -4.93,-1.04l0 9.06 0 46.1c0,4.71 -1.12,9.25 -3.35,13.58 -2.25,4.34 -5.75,7.89 -10.51,10.66 -4.78,2.77 -10.7,4.15 -17.8,4.15 -7.13,0 -13.1,-1.3 -17.88,-3.89 -4.8,-2.62 -8.3,-6.06 -10.55,-10.31 -2.23,-4.28 -3.35,-8.71 -3.35,-13.34zm165.83 -0.52c0,0.63 -0.06,1.36 -0.19,2.2 -0.13,0.87 -0.33,1.93 -0.63,3.24 -0.5,2.25 -1.32,4.58 -2.46,7 -1.13,2.44 -2.49,4.26 -4.09,5.49l5.81 0.02c10.98,0 18.68,1.81 23.13,5.47l-15.09 8.89c-1.06,-3.31 -3.52,-5.57 -7.44,-6.87 -3.91,-1.28 -8.04,-1.93 -12.39,-1.93 -1.47,0.8 -3.85,1.78 -7.11,2.88 -3.29,1.1 -6.44,1.67 -9.47,1.67 -5.58,0 -10.55,-0.76 -14.9,-2.3 -4.35,-1.51 -7.89,-3.59 -10.61,-6.25 -2.72,-2.64 -4.78,-5.62 -6.16,-8.97 -0.63,-1.69 -1.13,-3.39 -1.47,-5.1 -0.32,-1.71 -0.5,-3.44 -0.5,-5.17l0 -49c0,-3.09 -0.78,-5.15 -2.31,-6.16 -1.54,-1.02 -4.24,-1.51 -8.06,-1.51 -0.26,0 -0.39,-0.39 -0.39,-1.19 0,-0.69 0.13,-1.06 0.39,-1.15l33.6 0c0.26,0 0.39,0.35 0.39,1.02 0,0.84 -0.17,1.28 -0.5,1.32 -3.72,0 -6.4,0.5 -8.07,1.51 -1.56,1.06 -2.33,3.11 -2.33,6.16l0 47.46c0,15.92 7.09,23.87 21.3,23.87 5.49,0 10.38,-1.26 14.68,-3.74 4.32,-2.51 7.16,-5.79 8.5,-9.9 0.63,-1.9 1.13,-3.78 1.47,-5.64 0.32,-1.86 0.5,-3.7 0.5,-5.54 0,-3.55 -0.58,-6.46 -1.75,-8.78 -1.15,-2.31 -2.31,-3.98 -3.5,-5.02 -1.19,-1.04 -2.12,-1.73 -2.79,-2.06l0 -30.66c0,-3.05 -0.78,-5.08 -2.33,-6.12 -1.58,-1.04 -4.3,-1.56 -8.2,-1.56 -0.32,0 -0.5,-0.43 -0.5,-1.32 0,-0.61 0.13,-0.93 0.39,-1.02l33.62 0c0.32,0 0.5,0.39 0.5,1.15 0,0.76 -0.17,1.15 -0.5,1.19 -3.76,0 -6.46,0.5 -8.09,1.49 -1.62,0.99 -2.44,3.05 -2.44,6.18l0 48.72zm54 22.23l26.03 0c13.11,0 21.93,1.86 26.47,5.56l-14.51 8.97c-0.8,-1.43 -2.21,-2.9 -4.22,-4.43 -1.99,-1.51 -4.5,-2.79 -7.53,-3.85 -3,-1.06 -6.31,-1.58 -9.9,-1.58l-29.06 0 0 -74.72c0,-3.18 -0.69,-5.39 -2.07,-6.66 -1.36,-1.28 -3.81,-1.9 -7.27,-1.9 -0.35,0 -0.52,-0.39 -0.52,-1.19 0,-0.74 0.17,-1.1 0.5,-1.15l31.61 0c0.3,0 0.45,0.39 0.45,1.15 0,0.71 -0.19,1.1 -0.56,1.19 -2.83,0 -5.1,0.67 -6.83,2.03 -1.73,1.34 -2.59,3.52 -2.59,6.53l0 70.06zm136.51 -70.81l0 48.74c0,4.65 -1.12,9.13 -3.35,13.41 -2.25,4.3 -5.73,7.79 -10.44,10.49 -4.73,2.68 -10.68,4.02 -17.86,4.02 -7.13,0 -13.1,-1.3 -17.88,-3.89 -4.8,-2.62 -8.3,-6.06 -10.55,-10.31 -2.23,-4.28 -3.35,-8.71 -3.35,-13.34l0 -49.24c0,-3.09 -0.78,-5.15 -2.31,-6.16 -1.54,-1.02 -4.24,-1.51 -8.06,-1.51 -0.26,0 -0.39,-0.39 -0.39,-1.19 0,-0.69 0.13,-1.06 0.39,-1.15l33.6 0c0.26,0 0.39,0.35 0.39,1.02 0,0.84 -0.17,1.28 -0.5,1.32 -3.72,0 -6.4,0.5 -8.07,1.51 -1.56,1.06 -2.33,3.11 -2.33,6.16l0 47.81c0,9.78 2.1,16.2 6.27,19.29 4.17,3.09 8.5,4.63 12.93,4.63 2.19,0 4.65,-0.47 7.37,-1.41 2.72,-0.93 5.32,-3.18 7.76,-6.77 2.44,-3.61 3.68,-8.84 3.68,-15.74l0 -47.81c0,-3.05 -0.78,-5.08 -2.33,-6.12 -1.56,-1.04 -4.28,-1.56 -8.17,-1.56l-0.11 -2.33 33.56 0c0.39,0 0.58,0.39 0.58,1.15 0,0.71 -0.19,1.1 -0.58,1.19 -3.59,0 -6.2,0.52 -7.81,1.56 -1.62,1.04 -2.42,3.11 -2.42,6.25zm100.69 48.59c0,0.63 -0.06,1.36 -0.19,2.2 -0.13,0.87 -0.33,1.93 -0.63,3.24 -0.5,2.25 -1.32,4.58 -2.46,7 -1.13,2.44 -2.49,4.26 -4.09,5.49l5.81 0.02c10.98,0 18.68,1.81 23.13,5.47l-15.09 8.89c-1.06,-3.31 -3.52,-5.57 -7.44,-6.87 -3.91,-1.28 -8.04,-1.93 -12.39,-1.93 -1.47,0.8 -3.85,1.78 -7.11,2.88 -3.29,1.1 -6.44,1.67 -9.47,1.67 -5.58,0 -10.55,-0.76 -14.9,-2.3 -4.35,-1.51 -7.89,-3.59 -10.61,-6.25 -2.72,-2.64 -4.78,-5.62 -6.16,-8.97 -0.63,-1.69 -1.13,-3.39 -1.47,-5.1 -0.32,-1.71 -0.5,-3.44 -0.5,-5.17l0 -49c0,-3.09 -0.78,-5.15 -2.31,-6.16 -1.54,-1.02 -4.24,-1.51 -8.06,-1.51 -0.26,0 -0.39,-0.39 -0.39,-1.19 0,-0.69 0.13,-1.06 0.39,-1.15l33.6 0c0.26,0 0.39,0.35 0.39,1.02 0,0.84 -0.17,1.28 -0.5,1.32 -3.72,0 -6.4,0.5 -8.07,1.51 -1.56,1.06 -2.33,3.11 -2.33,6.16l0 47.46c0,15.92 7.09,23.87 21.3,23.87 5.49,0 10.38,-1.26 14.68,-3.74 4.32,-2.51 7.16,-5.79 8.5,-9.9 0.63,-1.9 1.13,-3.78 1.47,-5.64 0.32,-1.86 0.5,-3.7 0.5,-5.54 0,-3.55 -0.58,-6.46 -1.75,-8.78 -1.15,-2.31 -2.31,-3.98 -3.5,-5.02 -1.19,-1.04 -2.12,-1.73 -2.79,-2.06l0 -30.66c0,-3.05 -0.78,-5.08 -2.33,-6.12 -1.58,-1.04 -4.3,-1.56 -8.2,-1.56 -0.32,0 -0.5,-0.43 -0.5,-1.32 0,-0.61 0.13,-0.93 0.39,-1.02l33.62 0c0.32,0 0.5,0.39 0.5,1.15 0,0.76 -0.17,1.15 -0.5,1.19 -3.76,0 -6.46,0.5 -8.09,1.49 -1.62,0.99 -2.44,3.05 -2.44,6.18l0 48.72zm104.73 -31.74l0 5.71c0,2.22 0.26,3.91 0.8,4.99 0.52,1.1 1.43,1.91 2.7,2.42 0.58,0.17 1.34,0.33 2.25,0.5 0.91,0.17 1.84,0.26 2.81,0.26 0.26,0 0.39,0.43 0.39,1.32 0,0.86 -0.13,1.32 -0.39,1.41l-29.45 0c-0.26,0 -0.39,-0.39 -0.39,-1.15 0,-0.97 0.13,-1.49 0.39,-1.57 2.96,0 5.06,-0.56 6.29,-1.71 1.26,-1.15 1.88,-3.31 1.88,-6.46l0 -4.13c0,-6.79 -1.21,-12 -3.61,-15.59 -2.4,-3.59 -5.02,-5.9 -7.83,-6.92 -2.81,-1.02 -5.28,-1.51 -7.37,-1.51 -2.38,0 -4.97,0.5 -7.83,1.49 -2.85,1 -5.47,3.29 -7.83,6.85 -2.36,3.57 -3.55,8.8 -3.55,15.7l0 46.14c0,3 1.02,5.19 3.05,6.53 2.01,1.36 4.48,2.03 7.35,2.03 0.32,0 0.5,0.41 0.5,1.25 0,0.72 -0.13,1.08 -0.39,1.08l-33.6 0c-0.26,0 -0.39,-0.39 -0.39,-1.19 0,-0.69 0.13,-1.06 0.39,-1.15 3.63,0 6.27,-0.63 7.91,-1.9 1.64,-1.28 2.46,-3.48 2.46,-6.66l0 -47.72c0,-3.59 0.61,-6.98 1.84,-10.16 1.23,-3.2 3.13,-6.1 5.73,-8.69 2.59,-2.61 5.93,-4.67 10.01,-6.23 4.06,-1.53 8.8,-2.31 14.2,-2.31 5.45,0 10.2,0.78 14.27,2.31 4.09,1.54 7.35,3.57 9.81,6.08 2.46,2.53 4.35,5.43 5.65,8.76 1.28,3.31 1.92,6.72 1.92,10.23zm94.59 31.74c0,0.63 -0.06,1.36 -0.19,2.2 -0.13,0.87 -0.33,1.93 -0.63,3.24 -0.5,2.25 -1.32,4.58 -2.46,7 -1.13,2.44 -2.49,4.26 -4.09,5.49l5.81 0.02c10.98,0 18.68,1.81 23.13,5.47l-15.09 8.89c-1.06,-3.31 -3.52,-5.57 -7.44,-6.87 -3.91,-1.28 -8.04,-1.93 -12.39,-1.93 -1.47,0.8 -3.85,1.78 -7.11,2.88 -3.29,1.1 -6.44,1.67 -9.47,1.67 -5.58,0 -10.55,-0.76 -14.9,-2.3 -4.35,-1.51 -7.89,-3.59 -10.61,-6.25 -2.72,-2.64 -4.78,-5.62 -6.16,-8.97 -0.63,-1.69 -1.13,-3.39 -1.47,-5.1 -0.32,-1.71 -0.5,-3.44 -0.5,-5.17l0 -49c0,-3.09 -0.78,-5.15 -2.31,-6.16 -1.54,-1.02 -4.24,-1.51 -8.06,-1.51 -0.26,0 -0.39,-0.39 -0.39,-1.19 0,-0.69 0.13,-1.06 0.39,-1.15l33.6 0c0.26,0 0.39,0.35 0.39,1.02 0,0.84 -0.17,1.28 -0.5,1.32 -3.72,0 -6.4,0.5 -8.07,1.51 -1.56,1.06 -2.33,3.11 -2.33,6.16l0 47.46c0,15.92 7.09,23.87 21.3,23.87 5.49,0 10.38,-1.26 14.68,-3.74 4.32,-2.51 7.16,-5.79 8.5,-9.9 0.63,-1.9 1.13,-3.78 1.47,-5.64 0.32,-1.86 0.5,-3.7 0.5,-5.54 0,-3.55 -0.58,-6.46 -1.75,-8.78 -1.15,-2.31 -2.31,-3.98 -3.5,-5.02 -1.19,-1.04 -2.12,-1.73 -2.79,-2.06l0 -30.66c0,-3.05 -0.78,-5.08 -2.33,-6.12 -1.58,-1.04 -4.3,-1.56 -8.2,-1.56 -0.32,0 -0.5,-0.43 -0.5,-1.32 0,-0.61 0.13,-0.93 0.39,-1.02l33.62 0c0.32,0 0.5,0.39 0.5,1.15 0,0.76 -0.17,1.15 -0.5,1.19 -3.76,0 -6.46,0.5 -8.09,1.49 -1.62,0.99 -2.44,3.05 -2.44,6.18l0 48.72z"/>
  <path class="fil0" d="M6072.15 8037.15l0 -6.92c0,-3.13 -0.58,-5.17 -1.77,-6.09 -0.61,-0.46 -1.43,-0.85 -2.49,-1.13 -1.06,-0.3 -2.36,-0.45 -3.93,-0.45 -0.33,0 -0.5,-0.46 -0.5,-1.36 0,-0.59 0.13,-0.91 0.39,-0.97l29.06 0c0.26,0 0.39,0.39 0.39,1.15 0,0.71 -0.13,1.1 -0.39,1.19 -1.92,0 -3.52,0.26 -4.73,0.76 -0.98,0.39 -1.71,1.1 -2.19,2.16 -0.5,1.06 -0.74,2.68 -0.74,4.87l0 6.27c0,3.35 -0.65,6.62 -1.97,9.8 -1.3,3.2 -3.28,6.04 -5.92,8.52 -2.64,2.49 -6.08,4.52 -10.31,6.06 -4.24,1.54 -9.08,2.31 -14.49,2.31 -7.13,0 -13.08,-1.34 -17.86,-4 -4.76,-2.66 -8.28,-6.08 -10.53,-10.3 -2.27,-4.19 -3.39,-8.6 -3.39,-13.21l0 -44.37 -6.9 0c-1.49,-0.11 -3.11,-0.37 -4.93,-0.76 -1.8,-0.37 -4.02,-0.93 -6.68,-1.64 -4.93,-1.39 -8.76,-3.74 -11.46,-7.07l12.48 -10.77c0,1.77 1.15,3.96 3.46,6.57 2.29,2.62 5.21,4.89 8.76,6.83 3.55,1.94 6.92,2.92 10.07,2.92l8.04 0 0 46.72c0,6.81 1.21,12.02 3.61,15.66 2.4,3.63 5.06,5.99 7.91,7.09 2.88,1.1 5.32,1.64 7.29,1.64 2.29,0 4.91,-0.45 7.83,-1.34 2.94,-0.89 5.67,-2.92 8.15,-6.12 2.48,-3.2 3.74,-7.87 3.74,-14.01z"/>
  <path class="fil1" d="M2495.86 7178.49l695.27 0 0 565.43c0,191.2 -156.43,347.63 -347.63,347.63l-0 0c-191.2,0 -347.63,-156.43 -347.63,-347.63l0 -565.43z"/>
  <path class="fil2" d="M3145.68 7265.33c-10.81,33.05 -30.13,53.74 -64.56,50.63l-271.48 -22.6c0.05,1.25 0.07,2.51 0.07,3.78 0,18.69 -5.57,36.11 -15.14,50.69 -6.43,-4.58 -13.47,-8.34 -20.98,-11.13 7.86,-11.23 12.48,-24.87 12.48,-39.57 0,-11.4 -2.79,-22.17 -7.7,-31.66l22.78 0 0 -0.01 344.53 -0.14z"/>
  <path class="fil2" d="M2717.44 7261.24c2.86,-5.45 2.56,-23.5 -18.75,-24.24l-74.52 -0.1c-6.21,-0.03 -12.67,-0.51 -16.32,-6.55 -2.69,25.35 7.31,30.36 17.08,30.15l-0.04 161.33c3.47,48.06 26.08,82.03 66.1,103.16l-0.03 107.23 25.55 0.02 0.06 -124.56c-39.34,-11.06 -63.93,-42 -66.07,-90.89l0.08 -155.63 66.85 0.09z"/>
  <path class="fil2" d="M2685.19 7265.66c-0.58,22.05 -19.31,17.34 -28.22,0l28.22 0z"/>
  <path class="fil2" d="M2746.41 7297.75c-4.5,-8.72 -23.06,-8.89 -29.35,-6.02l6.36 41.34c-8.67,1.85 -16.89,4.94 -24.45,9.1l-10.57 -76.73 40.31 -0.07c16.15,-0.03 18.95,18.93 17.7,32.38z"/>
  <path class="fil2" d="M3021.12 7641.93c-24.23,18.38 -57.52,16.14 -79.47,-10.15l-128.36 -154.87c6.5,-7.72 9.27,-11.66 12.92,-21.25l194.91 186.26z"/>
  <path class="fil2" d="M2933.38 7642.69c-26.17,15.49 -53.78,13.34 -73.15,-19.54l-69.78 -125.72c7.77,-4.54 11.43,-6.67 17.52,-13.23l125.41 158.49z"/>
  <path class="fil2" d="M2858.67 7646.37c-27.99,11.92 -58.64,5.86 -67.97,-29.07l-28.96 -107.27c6.9,-1.66 12.39,-3.64 20.13,-7.8l76.8 144.15z"/>
  <path class="fil2" d="M2932.33 7477c-28.1,20.49 -48.43,20.81 -74.54,-1.84l-29.02 -27.7c2.68,-8.53 3.87,-16.61 3.87,-26.01 0,-5.15 0.39,-5.28 -0.44,-10.19l100.14 65.74z"/>
  <path class="fil2" d="M3000.14 7442.52c-23.89,25.27 -49.63,32.81 -79.44,15.3l-90.13 -57.99c-4.49,-16.39 -15.35,-33.8 -27.43,-45.1 0.84,-1.25 -0.85,1.25 0,0l197 87.78z"/>
  <path class="fil2" d="M3060.62 7393.63c-19.79,28.6 -45.02,41.51 -77.14,28.72l-175.93 -75.37c4.41,-7.37 5.34,-9.46 7.72,-17.89l245.35 64.54z"/>
  <path class="fil2" d="M3110.8 7333.51c-15.41,31.18 -37.87,48.17 -71.5,40.19l-221.76 -53.06c1.93,-7.66 2.75,-11.56 2.75,-19.81 0,-0.3 -0.01,-0.6 -0.01,-0.91l290.52 33.59z"/>
  <polygon class="fil2" points="2748.95,7568.3 2744.39,7568.3 2744.39,7500.38 2748.95,7500.38 "/>
  <polygon class="fil2" points="2748.4,7342.17 2743.84,7342.17 2743.84,7300.17 2748.4,7300.17 "/>
  <path class="fil2" d="M2745.95 7572.44c5.82,0 10.57,5.06 10.57,11.27 0,6.21 -4.75,11.28 -10.57,11.28 -5.82,0 -10.57,-5.07 -10.57,-11.28 0,-6.21 4.75,-11.27 10.57,-11.27zm-25.13 25.68l52.55 0.07 -26.17 54.98 -26.38 -55.05z"/>
  <path class="fil2" d="M2796.43 7452.53c-8.54,14.79 -27.56,19.79 -42.48,11.16 -14.92,-8.63 -20.09,-27.61 -11.56,-42.4 -12.08,12.19 -12.09,31.94 -0.02,44.13 6.03,6.09 13.95,9.14 21.86,9.14 -5.6,5.65 -13.33,9.15 -21.87,9.15 -17.08,0 -30.92,-13.97 -30.91,-31.21 0.01,-17.24 13.86,-31.2 30.94,-31.21 -16.6,-4.36 -33.71,5.5 -38.23,22.05 -2.26,8.27 -0.95,16.65 3.01,23.5 -7.69,-2.02 -14.58,-6.98 -18.85,-14.37 -8.54,-14.8 -3.36,-33.77 11.57,-42.37 14.93,-8.61 33.95,-3.6 42.5,11.19 -4.52,-16.56 -21.62,-26.44 -38.2,-22.09 -8.3,2.18 -14.88,7.51 -18.85,14.36 -2.09,-7.67 -1.25,-16.12 3.02,-23.51 8.54,-14.79 27.57,-19.79 42.48,-11.17 14.92,8.63 20.09,27.61 11.56,42.39 12.08,-12.19 12.09,-31.93 0.03,-44.12 -6.04,-6.09 -13.95,-9.15 -21.87,-9.15 5.6,-5.64 13.33,-9.14 21.87,-9.14 17.08,0 30.92,13.97 30.9,31.21 -0.01,17.23 -13.86,31.2 -30.94,31.2 16.6,4.37 33.71,-5.5 38.23,-22.04 2.26,-8.27 0.94,-16.65 -3.01,-23.5 7.69,2.03 14.58,6.98 18.85,14.37 8.54,14.79 3.35,33.76 -11.58,42.37 -14.93,8.6 -33.95,3.59 -42.49,-11.19 4.52,16.56 21.62,26.44 38.2,22.09 8.3,-2.18 14.89,-7.52 18.85,-14.37 2.09,7.67 1.25,16.12 -3.02,23.52zm-54.29 -111.65c-44.23,0 -80.09,35.86 -80.09,80.09 0,44.24 35.86,80.1 80.09,80.1 44.23,0 80.09,-35.86 80.09,-80.1 0,-44.23 -35.86,-80.09 -80.09,-80.09z"/>
  <path class="fil2" d="M2893.72 7742.77c16.59,4.15 24.54,17.09 24.54,28.94l0 119.82 -24.54 23.2 0 -171.96z"/>
  <path class="fil2" d="M2771.14 7932.83l0 45.53c-0.22,12.98 10.13,25.75 24.54,28.82l0 -74.35 -24.54 0z"/>
  <path class="fil2" d="M2795.68 7742.77c-16.59,4.15 -24.54,17.09 -24.54,28.94l0 97.46c-0.22,12.98 10.13,25.75 24.54,28.82l0 -155.22z"/>
  <polygon class="fil2" points="2918.27,8006.54 2893.72,8006.54 2893.72,7932.83 2918.27,7932.83 "/>
  <polygon class="fil2" points="2853.83,7929.31 2853.86,8006.54 2878.4,8006.54 2878.38,7907.98 "/>
  <path class="fil2" d="M2756.22 8006.54l0 -27.14 0 -59.7 0 -165.59c0,-6.27 -5.49,-11.35 -12.27,-11.35 -6.78,0 -12.27,5.07 -12.27,11.35l0 165.59 0 59.7 0 27.14 24.54 0z"/>
  <path class="fil2" d="M2958.96 8006.54l0 -27.14 0 -59.7 0 -165.59c0,-6.27 -5.5,-11.35 -12.28,-11.35 -6.77,0 -12.27,5.07 -12.27,11.35l0 165.59 0 59.7 0 27.14 24.55 0z"/>
  <path class="fil2" d="M2878.38 7742.77c-16.59,4.15 -24.54,17.09 -24.54,28.94l0 107.88 24.54 0 0 -136.82z"/>
  <path class="fil2" d="M2811.04 7742.77c16.6,4.15 24.54,17.09 24.54,28.94l0.01 206.65c0.22,12.98 -10.14,25.75 -24.55,28.82l0 -264.41z"/>
  <path class="fil2" d="M2723.56 7661.14l122.21 0 205.62 0 0 0.03c4.39,-0.11 8.91,0.08 13.52,0.53 24.45,2.47 45.54,13.16 60.7,29.34 15.2,16.24 24.41,37.93 25.08,62.33 0.12,4.22 -0.06,8.74 -0.54,13.54 -2.3,22.76 -13.61,43.53 -30.06,58.73 -16.44,15.17 -38.06,24.88 -61.01,25.5 -3.44,0.08 -7.03,-0.06 -10.74,-0.43 -19.12,-1.92 -35.6,-10.29 -47.45,-22.94 -11.91,-12.72 -19.13,-29.68 -19.65,-48.76 -0.09,-3.24 0.05,-6.76 0.43,-10.54 1.64,-16.22 9.66,-30.98 21.34,-41.76 11.64,-10.76 27.01,-17.63 43.32,-18.1 2.4,-0.06 4.96,0.05 7.66,0.33 13.78,1.39 25.68,7.43 34.23,16.56 8.6,9.19 13.83,21.44 14.2,35.19 0.06,2.26 -0.04,4.78 -0.32,7.53 -0.96,9.67 -5.72,18.43 -12.6,24.79 -6.87,6.34 -15.96,10.4 -25.63,10.67 -1.36,0.04 -2.9,-0.04 -4.61,-0.21 -8.44,-0.84 -15.74,-4.56 -21,-10.16 -4.15,-4.46 -7.03,-10.06 -8.19,-16.34 -0.65,-3.47 0.2,-6.72 2.46,-9.44 2.26,-2.72 5.3,-4.14 8.83,-4.14l1.59 0c5.53,0 10.18,3.81 11.26,9.23 0.31,1.54 1,2.87 1.96,3.91 1.35,1.42 3.24,2.37 5.48,2.6 0.28,0.02 0.79,0.04 1.54,0.01 3.59,-0.09 7.05,-1.67 9.73,-4.15 2.68,-2.47 4.5,-5.72 4.84,-9.16 0.14,-1.3 0.17,-2.8 0.13,-4.47 -0.22,-7.54 -3,-14.18 -7.59,-19.09 -4.64,-4.95 -11.14,-8.22 -18.7,-8.98 -1.29,-0.13 -2.82,-0.18 -4.61,-0.13 -10.22,0.28 -19.96,4.69 -27.42,11.57 -7.46,6.88 -12.56,16.14 -13.57,26.13 -0.24,2.33 -0.3,4.83 -0.24,7.47 0.35,12.87 5.13,24.23 13.02,32.65 7.94,8.48 19.04,14.09 31.94,15.38 2.29,0.24 4.85,0.31 7.69,0.24 16.85,-0.46 32.85,-7.69 45.09,-18.99 12.23,-11.28 20.64,-26.56 22.3,-43.09 0.33,-3.35 0.46,-6.85 0.35,-10.48 -0.5,-18.19 -7.29,-34.28 -18.48,-46.22 -11.24,-12.02 -26.93,-19.94 -45.17,-21.77 -3.28,-0.33 -6.87,-0.46 -10.74,-0.35 -1.43,0.04 -2.84,0.08 -4.19,-0.04l-201.81 0 -122.21 0 0 -24.53z"/>
  <path class="fil2" d="M2637.84 7685.67c-3.14,-0.03 -6.08,0.11 -8.81,0.38 -18.25,1.83 -33.93,9.75 -45.17,21.77 -11.19,11.94 -17.98,28.03 -18.48,46.22 -0.11,3.63 0.01,7.13 0.35,10.48 1.66,16.54 10.07,31.81 22.3,43.09 12.24,11.31 28.24,18.53 45.09,18.99 2.84,0.07 5.4,0 7.69,-0.24 12.89,-1.29 24,-6.9 31.94,-15.38 7.89,-8.43 12.68,-19.78 13.03,-32.65 0.06,-2.64 0,-5.14 -0.24,-7.47 -1,-9.99 -6.11,-19.25 -13.56,-26.13 -7.46,-6.89 -17.2,-11.29 -27.42,-11.57 -1.78,-0.05 -3.31,0 -4.61,0.13 -7.56,0.75 -14.06,4.02 -18.7,8.98 -4.59,4.91 -7.37,11.55 -7.59,19.09 -0.04,1.67 -0.01,3.17 0.13,4.47 0.35,3.44 2.16,6.69 4.85,9.16 2.67,2.48 6.14,4.06 9.73,4.15 0.75,0.02 1.26,0.01 1.54,-0.01 2.23,-0.23 4.13,-1.18 5.48,-2.6 0.97,-1.04 1.66,-2.37 1.96,-3.91 1.09,-5.42 5.73,-9.23 11.26,-9.23l1.58 0c3.53,0 6.57,1.43 8.83,4.14 2.26,2.71 3.11,5.96 2.47,9.44 -1.16,6.28 -4.04,11.88 -8.19,16.34 -5.26,5.6 -12.55,9.32 -20.99,10.16 -1.71,0.17 -3.25,0.25 -4.61,0.21 -9.67,-0.26 -18.76,-4.32 -25.63,-10.67 -6.89,-6.36 -11.64,-15.12 -12.6,-24.79 -0.28,-2.75 -0.38,-5.27 -0.32,-7.53 0.37,-13.75 5.6,-26 14.2,-35.19 8.55,-9.13 20.44,-15.17 34.23,-16.56 2.71,-0.28 5.26,-0.39 7.67,-0.33 16.31,0.47 31.68,7.34 43.32,18.1 11.68,10.78 19.7,25.55 21.34,41.76 0.37,3.78 0.52,7.29 0.43,10.54 -0.53,19.07 -7.74,36.04 -19.65,48.76 -11.85,12.65 -28.33,21.02 -47.46,22.94 -3.71,0.37 -7.3,0.51 -10.74,0.43 -22.95,-0.62 -44.58,-10.33 -61.02,-25.5 -16.46,-15.2 -27.76,-35.96 -30.06,-58.73 -0.48,-4.8 -0.66,-9.31 -0.54,-13.54 0.67,-24.41 9.88,-46.09 25.09,-62.33 15.16,-16.19 36.25,-26.87 60.7,-29.34 1.07,-0.11 2.13,-0.19 3.19,-0.27 2.34,7.16 5.36,16.27 8.02,24.24z"/>
  <path class="fil2" d="M2713.67 7685.67l0.04 -35.16c-3.47,-17.97 -31,-11.57 -22.32,7.39l22.28 27.77zm-25.67 -0.16l-0.2 -35.16c-3.47,-17.97 -31,-11.57 -22.32,7.39l22.52 27.78zm-26.33 0.04l-0.2 -35.16c-3.47,-17.97 -31,-11.57 -22.32,7.39l22.52 27.77z"/>
 </g>
</svg>